<svg width="288" height="286" viewBox="0 0 288 286" fill="none" xmlns="http://www.w3.org/2000/svg">
<path d="M11.7521 170.257C17.695 173.687 22.5139 182.032 22.5139 188.892L130.934 126.312L286.692 216.214L167.52 284.999L11.7618 195.097C5.81887 191.667 1 183.322 1 176.462C1 169.602 5.81887 166.817 11.7618 170.247L11.7521 170.257Z" fill="white" stroke="#222222" stroke-width="2" stroke-linejoin="round"/>
<path d="M11.7518 170.258C9.43522 168.919 7.30435 168.538 5.54492 168.959L122.566 101.249C124.541 99.578 127.551 99.5194 130.924 101.464C136.867 104.894 141.686 113.239 141.686 120.099L22.5136 188.883C22.5136 182.024 17.6948 173.678 11.7518 170.248V170.258Z" fill="#F4D2D2" stroke="#222222" stroke-width="2" stroke-linejoin="round"/>
<path d="M35.2896 195.312L35.964 195.703C36.57 195.351 36.5603 194.98 36.5505 194.687C36.5505 194.433 36.5309 194.257 36.8632 194.071C37.4595 193.729 37.4888 193.387 37.5182 193.114C37.5377 192.879 37.5573 192.703 37.8896 192.508C38.261 192.293 38.5347 192.254 38.8866 192.215C39.2874 192.166 39.7761 192.097 40.343 191.775C40.8904 191.462 41.0272 191.208 41.1445 190.983C41.252 190.788 41.3303 190.641 41.7115 190.417C41.9949 190.25 42.3175 190.26 42.8453 190.299C43.422 190.338 44.1356 190.397 44.7709 190.026C45.2303 189.762 45.4649 189.645 45.7093 189.518C45.9634 189.39 46.2176 189.263 46.6867 188.99C47.2732 188.658 47.3318 188.335 47.3807 188.071C47.4296 187.847 47.4589 187.68 47.801 187.485C48.2702 187.211 48.495 187.075 48.7296 186.928C48.9544 186.791 49.1695 186.654 49.6387 186.391C50.1469 186.097 50.3424 185.912 50.5281 185.736C50.6943 185.579 50.8507 185.433 51.2808 185.189C51.7988 184.886 51.9846 184.671 52.1409 184.485C52.2876 184.309 52.4049 184.163 52.8154 183.928C53.0598 183.791 53.4117 183.83 54.1154 183.938C54.8094 184.055 55.6794 184.192 56.344 183.811C56.9012 183.488 57.0282 183.215 57.126 182.99C57.214 182.794 57.2824 182.638 57.6636 182.423C58.0643 182.189 58.3283 182.13 58.6313 182.052C58.9832 181.964 59.3741 181.876 59.902 181.563C60.4396 181.251 60.596 181.026 60.7328 180.811C60.8501 180.635 60.9576 180.479 61.3486 180.254C61.8374 179.97 62.0524 179.814 62.2577 179.648C62.4531 179.501 62.6389 179.355 63.0787 179.101C63.6261 178.788 63.7629 178.524 63.8705 178.299C63.9682 178.104 64.0464 177.948 64.4276 177.733C64.8186 177.508 65.0727 177.459 65.3953 177.391C65.7667 177.312 66.1773 177.224 66.7149 176.922C67.1743 176.658 67.4089 176.531 67.6435 176.404C67.8878 176.277 68.1322 176.14 68.6014 175.866C69.1878 175.524 69.2367 175.202 69.2758 174.938C69.3051 174.713 69.3345 174.547 69.6766 174.342C70.0773 174.107 70.3412 174.049 70.6442 173.97C70.9864 173.882 71.3773 173.785 71.9052 173.482C72.1886 173.316 72.5112 173.335 73.0488 173.374C73.6353 173.423 74.3586 173.472 74.9842 173.11C75.6391 172.729 75.424 172.251 75.2481 171.86C75.0722 171.469 75.0233 171.273 75.2676 171.127C75.6684 170.892 75.9323 170.824 76.2353 170.746C76.5774 170.658 76.9587 170.56 77.4767 170.257C77.9068 170.003 78.1609 169.905 78.4248 169.798C78.7083 169.681 79.0113 169.563 79.5098 169.28C80.0572 168.967 80.1941 168.713 80.3211 168.498C80.4286 168.303 80.5166 168.156 80.8978 167.931C81.1911 167.765 81.4843 167.775 82.0121 167.804C82.5693 167.834 83.273 167.873 83.8888 167.521C84.3385 167.267 84.5731 167.15 84.8272 167.032C85.0911 166.905 85.355 166.778 85.8438 166.505C86.4302 166.163 86.4889 165.84 86.528 165.576C86.5671 165.352 86.5964 165.185 86.9385 164.99C87.3002 164.785 87.5641 164.756 87.9453 164.716C88.3656 164.677 88.8837 164.619 89.4506 164.296C89.8709 164.052 90.1348 163.964 90.4085 163.866C90.7017 163.759 91.0341 163.642 91.5423 163.358C92.1093 163.026 92.207 162.733 92.2852 162.498C92.3536 162.293 92.4123 162.127 92.7739 161.922C93.3507 161.589 93.4288 161.286 93.4973 161.042C93.5559 160.827 93.6048 160.671 93.9567 160.466C94.4747 160.163 94.6604 159.958 94.8168 159.762C94.9635 159.586 95.0905 159.44 95.5011 159.205C95.7845 159.039 96.1071 159.058 96.6447 159.107C97.2312 159.156 97.9643 159.215 98.5898 158.853C99.2154 158.492 99.1372 158.081 99.0786 157.759C99.0199 157.456 99.0004 157.28 99.2936 157.114C99.6455 156.909 99.9192 156.889 100.31 156.87C100.75 156.84 101.307 156.801 101.884 156.469C102.285 156.234 102.549 156.176 102.852 156.098C103.194 156.01 103.585 155.912 104.112 155.609C104.738 155.247 104.66 154.837 104.591 154.505C104.533 154.202 104.513 154.026 104.797 153.86C105.237 153.606 105.481 153.498 105.745 153.381C106.019 153.264 106.292 153.137 106.781 152.853C107.152 152.638 107.426 152.599 107.768 152.56C108.159 152.511 108.658 152.443 109.215 152.12C109.557 151.925 109.84 151.915 110.241 151.896C110.701 151.876 111.277 151.847 111.874 151.515L113.731 150.44C114.317 150.098 114.356 149.765 114.386 149.492C114.415 149.257 114.434 149.091 114.767 148.896C115.334 148.573 115.431 148.28 115.519 148.046C115.588 147.84 115.646 147.684 116.018 147.469C116.292 147.313 116.634 147.342 117.23 147.42C117.865 147.498 118.657 147.596 119.302 147.215C119.84 146.902 119.986 146.658 120.113 146.443C120.231 146.257 120.319 146.101 120.7 145.876C121.218 145.573 121.404 145.358 121.56 145.173C121.697 144.997 121.824 144.85 122.235 144.616C122.792 144.293 122.909 144.029 123.017 143.805C123.105 143.609 123.183 143.453 123.554 143.238C124.014 142.974 124.248 142.847 124.493 142.72C124.737 142.593 124.991 142.456 125.46 142.192C125.705 142.055 126.056 142.094 126.75 142.202C127.444 142.309 128.305 142.456 128.969 142.075C129.575 141.723 129.566 141.362 129.556 141.059C129.556 140.795 129.536 140.629 129.859 140.443C130.279 140.199 130.543 140.111 130.807 140.013C131.11 139.906 131.423 139.788 131.931 139.505C132.429 139.222 132.635 139.046 132.83 138.88C133.006 138.723 133.182 138.577 133.612 138.332L132.938 137.941C132.439 138.225 132.234 138.401 132.039 138.567C131.863 138.723 131.687 138.86 131.257 139.114C130.836 139.358 130.572 139.446 130.308 139.544C130.005 139.651 129.693 139.769 129.184 140.052C128.578 140.404 128.588 140.775 128.598 141.068C128.598 141.352 128.598 141.508 128.295 141.684C128.05 141.821 127.699 141.782 127.005 141.674C126.311 141.567 125.45 141.42 124.786 141.801C124.326 142.065 124.092 142.192 123.847 142.319C123.603 142.446 123.349 142.583 122.88 142.857C122.323 143.179 122.205 143.443 122.098 143.668C122.01 143.863 121.932 144.02 121.56 144.235C121.032 144.537 120.856 144.752 120.7 144.948C120.553 145.124 120.436 145.27 120.026 145.505C119.488 145.818 119.341 146.062 119.214 146.277C119.097 146.463 119.009 146.619 118.628 146.844C118.354 147 118.012 146.971 117.425 146.892C116.79 146.814 115.998 146.717 115.353 147.098C114.786 147.42 114.689 147.713 114.601 147.948C114.532 148.153 114.474 148.309 114.102 148.524C113.516 148.866 113.477 149.199 113.447 149.472C113.418 149.707 113.398 149.873 113.066 150.068L111.209 151.143C110.867 151.339 110.583 151.348 110.183 151.368C109.723 151.388 109.146 151.417 108.55 151.749C108.179 151.964 107.905 152.003 107.563 152.042C107.172 152.091 106.673 152.16 106.116 152.482C105.676 152.736 105.432 152.844 105.178 152.961C104.904 153.078 104.631 153.205 104.142 153.489C103.516 153.85 103.594 154.26 103.663 154.593C103.722 154.896 103.741 155.072 103.458 155.238C103.057 155.472 102.793 155.531 102.49 155.609C102.148 155.697 101.757 155.795 101.229 156.098C100.877 156.303 100.603 156.322 100.212 156.342C99.7725 156.371 99.2154 156.41 98.6387 156.743C98.0131 157.104 98.0913 157.515 98.15 157.837C98.2086 158.14 98.2282 158.316 97.9349 158.482C97.6515 158.648 97.3289 158.629 96.7913 158.58C96.2048 158.531 95.4717 158.472 94.8462 158.834C94.3281 159.137 94.1424 159.342 93.986 159.537C93.8394 159.713 93.7123 159.86 93.3018 160.094C92.7251 160.427 92.6469 160.729 92.5784 160.974C92.5198 161.189 92.4709 161.345 92.119 161.55C91.5521 161.873 91.4544 162.176 91.3762 162.41C91.3078 162.615 91.2491 162.782 90.8875 162.987C90.4672 163.231 90.2032 163.319 89.9295 163.417C89.6363 163.524 89.304 163.642 88.7957 163.925C88.434 164.13 88.1701 164.159 87.7889 164.199C87.3686 164.238 86.8505 164.296 86.2836 164.619C85.6971 164.961 85.6483 165.283 85.5994 165.537C85.5603 165.762 85.531 165.928 85.1889 166.124C84.7392 166.378 84.5046 166.495 84.2505 166.612C83.9866 166.739 83.7227 166.866 83.2339 167.14C82.9407 167.306 82.6475 167.296 82.1196 167.267C81.5625 167.238 80.8587 167.198 80.2429 167.55C79.6955 167.863 79.5587 168.117 79.4316 168.332C79.3241 168.527 79.2361 168.674 78.8549 168.899C78.4249 169.153 78.1707 169.251 77.9068 169.358C77.6233 169.475 77.3203 169.593 76.8218 169.876C76.421 170.111 76.1571 170.179 75.8541 170.257C75.5218 170.345 75.1308 170.443 74.6128 170.746C73.9579 171.127 74.1729 171.606 74.3488 171.997C74.5248 172.387 74.5737 172.583 74.3293 172.729C74.0458 172.896 73.7233 172.876 73.1856 172.837C72.5992 172.788 71.8759 172.739 71.2503 173.101C70.8495 173.335 70.5856 173.394 70.2826 173.472C69.9405 173.56 69.5495 173.658 69.0217 173.961C68.4352 174.303 68.3863 174.625 68.3472 174.889C68.3179 175.114 68.2886 175.28 67.9465 175.485C67.4871 175.749 67.2525 175.876 67.0081 176.003C66.7638 176.13 66.5194 176.267 66.0502 176.54C65.6592 176.765 65.4051 176.814 65.0727 176.882C64.7013 176.961 64.2908 177.049 63.7532 177.352C63.2058 177.664 63.069 177.928 62.9614 178.153C62.8637 178.348 62.7855 178.505 62.4043 178.72C61.9155 179.003 61.7005 179.159 61.4952 179.325C61.2997 179.472 61.114 179.619 60.6742 179.873C60.1366 180.185 59.9802 180.42 59.8433 180.625C59.726 180.801 59.6185 180.957 59.2275 181.182C58.8268 181.417 58.5629 181.475 58.2599 181.553C57.908 181.641 57.517 181.729 56.9892 182.042C56.432 182.364 56.3049 182.638 56.2072 182.863C56.1192 183.058 56.0508 183.215 55.6793 183.43C55.435 183.566 55.0831 183.527 54.3793 183.42C53.6853 183.303 52.8154 183.166 52.1507 183.547C51.6327 183.85 51.447 184.065 51.2906 184.25C51.1439 184.426 51.0266 184.573 50.6161 184.807C50.1078 185.101 49.9123 185.277 49.7266 185.462C49.5605 185.619 49.4041 185.765 48.974 186.009C48.5048 186.283 48.28 186.42 48.0454 186.566C47.8206 186.703 47.6055 186.84 47.1364 187.104C46.5499 187.436 46.4912 187.759 46.4424 188.022C46.3935 188.247 46.3642 188.413 46.0221 188.609C45.5627 188.873 45.3281 189 45.0837 189.117C44.8295 189.244 44.5754 189.371 44.1062 189.645C43.8228 189.811 43.5002 189.801 42.9724 189.762C42.3957 189.723 41.6821 189.664 41.0468 190.035C40.4994 190.348 40.3626 190.602 40.2453 190.827C40.1378 191.022 40.0595 191.169 39.6783 191.394C39.3069 191.609 39.0332 191.648 38.6813 191.687C38.2806 191.736 37.7919 191.804 37.2249 192.127C36.6287 192.469 36.5993 192.811 36.57 193.084C36.5505 193.319 36.5309 193.495 36.1986 193.69C35.5926 194.042 35.6023 194.413 35.6121 194.706C35.6121 194.96 35.6317 195.136 35.2993 195.322L35.2896 195.312ZM42.9528 199.739L43.6273 200.13C44.2822 199.749 44.0671 199.26 43.8912 198.869C43.7152 198.478 43.6664 198.283 43.9108 198.136C44.3115 197.902 44.5754 197.833 44.8784 197.755C45.2205 197.667 45.6017 197.57 46.1296 197.267C46.5597 197.013 46.8138 196.915 47.0777 196.807C47.3612 196.69 47.6642 196.573 48.1627 196.289C48.7101 195.977 48.8469 195.723 48.974 195.508C49.0815 195.312 49.1695 195.166 49.5507 194.941C49.8439 194.775 50.1469 194.785 50.665 194.814C51.2222 194.843 51.9259 194.882 52.5515 194.531C53.0011 194.276 53.2357 194.159 53.4898 194.042C53.7538 193.915 54.0177 193.788 54.5064 193.514C55.0929 193.172 55.1515 192.85 55.1906 192.586C55.2297 192.361 55.2591 192.195 55.6012 192C55.9628 191.794 56.2267 191.765 56.6079 191.726C57.0282 191.687 57.5463 191.628 58.1132 191.296C58.5433 191.052 58.7974 190.964 59.0711 190.866C59.3644 190.759 59.6967 190.641 60.205 190.358C60.7719 190.026 60.8697 189.733 60.9576 189.498C61.0261 189.293 61.0847 189.127 61.4464 188.921C62.0231 188.589 62.1013 188.286 62.1697 188.042C62.2283 187.827 62.2772 187.671 62.6291 187.456C63.1472 187.153 63.3329 186.948 63.4893 186.752C63.6359 186.576 63.7629 186.43 64.1735 186.195C64.4569 186.029 64.7795 186.049 65.3171 186.088C65.9036 186.136 66.6367 186.195 67.2622 185.834C67.8878 185.472 67.8096 185.062 67.751 184.739C67.6923 184.436 67.6728 184.26 67.966 184.094C68.3179 183.889 68.5916 183.869 68.9826 183.85C69.4224 183.821 69.9796 183.781 70.5563 183.449C70.957 183.215 71.221 183.156 71.524 183.078C71.8661 182.99 72.2571 182.892 72.7849 182.589C73.4105 182.228 73.3323 181.817 73.2639 181.495C73.2052 181.192 73.1857 181.016 73.4691 180.85C73.909 180.596 74.1533 180.488 74.4173 180.371C74.6909 180.254 74.9646 180.127 75.4534 179.843C75.8248 179.628 76.0985 179.589 76.4406 179.55C76.8316 179.501 77.3301 179.433 77.8872 179.11C78.2293 178.915 78.5128 178.905 78.9136 178.886C79.3828 178.866 79.9497 178.837 80.5459 178.505L82.4031 177.43C82.9896 177.088 83.0287 176.755 83.0678 176.482C83.0971 176.247 83.1166 176.081 83.449 175.886C84.0159 175.563 84.1234 175.27 84.2016 175.036C84.2798 174.83 84.3287 174.674 84.7001 174.459C84.9738 174.303 85.3159 174.332 85.9122 174.41C86.5475 174.488 87.3393 174.586 87.9844 174.205C88.522 173.892 88.6686 173.648 88.8055 173.433C88.9228 173.247 89.0107 173.091 89.3919 172.866C89.91 172.563 90.0957 172.348 90.2521 172.153C90.389 171.977 90.516 171.83 90.9265 171.596C91.4837 171.273 91.601 171.01 91.7085 170.785C91.7965 170.589 91.8747 170.433 92.2461 170.218C92.7055 169.954 92.9401 169.827 93.1845 169.7C93.4289 169.573 93.683 169.436 94.1522 169.172C94.3965 169.036 94.7484 169.075 95.4424 169.182C96.1364 169.29 96.9966 169.436 97.6612 169.055C98.2673 168.703 98.2575 168.332 98.2477 168.039C98.2477 167.775 98.238 167.609 98.5605 167.423C98.9906 167.179 99.2447 167.081 99.5184 166.993C99.8214 166.886 100.134 166.769 100.642 166.485C101.141 166.202 101.346 166.026 101.542 165.86C101.718 165.703 101.894 165.557 102.324 165.313C102.764 165.058 103.008 164.951 103.272 164.834C103.546 164.716 103.819 164.589 104.308 164.306C104.904 163.964 104.934 163.622 104.953 163.348C104.973 163.114 104.982 162.938 105.325 162.752C105.569 162.606 105.911 162.645 106.585 162.743C107.26 162.84 108.101 162.967 108.755 162.586C109.381 162.225 109.293 161.814 109.225 161.482C109.156 161.179 109.137 160.993 109.42 160.827C109.694 160.671 110.026 160.69 110.593 160.749C111.199 160.808 111.952 160.886 112.597 160.515C113.271 160.124 112.959 159.586 112.704 159.156C112.48 158.765 112.352 158.501 112.587 158.365C112.919 158.169 113.222 158.169 113.633 158.15C114.112 158.14 114.708 158.12 115.304 157.778C115.637 157.583 115.94 157.573 116.34 157.563C116.819 157.554 117.416 157.534 118.012 157.192C118.677 156.811 118.413 156.293 118.198 155.883C118.002 155.502 117.895 155.267 118.149 155.12C118.442 154.945 118.725 154.954 119.253 154.974C119.801 155.003 120.475 155.032 121.101 154.671C121.521 154.427 121.765 154.348 122.059 154.251C122.362 154.153 122.704 154.036 123.212 153.743C123.847 153.381 123.74 152.951 123.652 152.609C123.574 152.296 123.544 152.111 123.828 151.945C124.307 151.671 124.522 151.524 124.747 151.378C124.962 151.241 125.177 151.104 125.626 150.84C125.959 150.645 126.252 150.635 126.662 150.625C127.132 150.606 127.728 150.596 128.314 150.254C128.715 150.019 128.979 149.951 129.282 149.873C129.614 149.785 129.996 149.687 130.523 149.384C131.149 149.023 131.09 148.632 131.041 148.309C130.993 148.006 130.993 147.84 131.286 147.674C131.716 147.43 131.97 147.332 132.234 147.244C132.537 147.137 132.85 147.02 133.358 146.736C133.866 146.443 134.062 146.248 134.238 146.072C134.404 145.906 134.551 145.759 134.971 145.524C135.323 145.319 135.596 145.3 135.987 145.28C136.427 145.251 136.975 145.212 137.551 144.879C137.874 144.694 138.187 144.694 138.607 144.694C139.106 144.694 139.731 144.694 140.327 144.342C140.972 143.971 140.806 143.511 140.679 143.15C140.562 142.808 140.503 142.612 140.777 142.456L140.103 142.065C139.457 142.436 139.624 142.896 139.751 143.257C139.868 143.599 139.927 143.795 139.653 143.951C139.33 144.137 139.018 144.137 138.597 144.137C138.099 144.137 137.473 144.137 136.877 144.489C136.525 144.694 136.251 144.713 135.86 144.733C135.42 144.762 134.873 144.801 134.296 145.134C133.788 145.427 133.593 145.622 133.417 145.798C133.251 145.964 133.104 146.111 132.684 146.345C132.254 146.59 131.999 146.687 131.735 146.775C131.432 146.883 131.12 147 130.611 147.283C129.986 147.645 130.044 148.036 130.093 148.358C130.142 148.661 130.142 148.827 129.849 148.993C129.448 149.228 129.184 149.296 128.881 149.375C128.549 149.462 128.168 149.56 127.64 149.863C127.308 150.059 127.014 150.068 126.604 150.078C126.135 150.098 125.538 150.107 124.952 150.449C124.473 150.723 124.258 150.87 124.033 151.016C123.818 151.153 123.603 151.29 123.153 151.554C122.518 151.915 122.626 152.345 122.714 152.677C122.792 152.99 122.821 153.176 122.538 153.342C122.117 153.586 121.873 153.664 121.58 153.762C121.277 153.86 120.935 153.977 120.426 154.27C120.133 154.446 119.85 154.436 119.322 154.417C118.774 154.388 118.1 154.358 117.474 154.72C116.81 155.101 117.074 155.619 117.289 156.029C117.484 156.41 117.592 156.645 117.338 156.791C117.005 156.987 116.702 156.997 116.301 157.006C115.822 157.016 115.226 157.036 114.63 157.378C114.298 157.573 113.995 157.573 113.584 157.593C113.105 157.602 112.509 157.622 111.913 157.964C111.238 158.355 111.551 158.892 111.805 159.322C112.03 159.713 112.157 159.977 111.922 160.114C111.649 160.27 111.316 160.251 110.749 160.192C110.143 160.133 109.391 160.055 108.746 160.427C108.12 160.788 108.208 161.208 108.276 161.541C108.345 161.843 108.364 162.029 108.081 162.195C107.837 162.342 107.494 162.303 106.82 162.205C106.146 162.107 105.305 161.98 104.65 162.361C104.054 162.703 104.024 163.045 104.005 163.319C103.985 163.554 103.976 163.729 103.634 163.915C103.194 164.169 102.949 164.277 102.685 164.394C102.412 164.511 102.138 164.638 101.649 164.922C101.151 165.205 100.946 165.381 100.75 165.547C100.574 165.703 100.398 165.85 99.968 166.094C99.538 166.339 99.2838 166.436 99.0101 166.524C98.7071 166.632 98.3944 166.749 97.8861 167.032C97.28 167.384 97.2898 167.755 97.2996 168.049C97.2996 168.312 97.3094 168.479 96.9868 168.664C96.7424 168.801 96.3905 168.762 95.6965 168.655C95.0025 168.547 94.1424 168.4 93.4777 168.782C93.0183 169.045 92.7837 169.172 92.5394 169.299C92.295 169.426 92.0408 169.563 91.5717 169.837C91.0145 170.159 90.8972 170.423 90.7897 170.648C90.7017 170.843 90.6236 171 90.2521 171.215C89.7243 171.518 89.5483 171.733 89.3919 171.928C89.2453 172.104 89.128 172.251 88.7175 172.485C88.1799 172.798 88.0333 173.042 87.8964 173.257C87.7791 173.443 87.6912 173.599 87.31 173.824C87.0363 173.98 86.6942 173.951 86.0979 173.873C85.4626 173.795 84.6708 173.697 84.0257 174.078C83.4587 174.4 83.3512 174.694 83.273 174.928C83.1948 175.133 83.1362 175.29 82.7745 175.505C82.188 175.847 82.149 176.179 82.1099 176.452C82.0805 176.687 82.061 176.853 81.7287 177.049L79.8715 178.123C79.5294 178.319 79.2459 178.329 78.8451 178.348C78.3857 178.368 77.809 178.397 77.2128 178.729C76.8413 178.944 76.5677 178.983 76.2256 179.023C75.8346 179.071 75.3361 179.14 74.7789 179.462C74.3391 179.716 74.0947 179.824 73.8308 179.941C73.5571 180.058 73.2834 180.185 72.7947 180.469C72.1691 180.83 72.2473 181.241 72.3157 181.573C72.3744 181.876 72.3939 182.052 72.1104 182.218C71.7097 182.452 71.4458 182.511 71.1428 182.589C70.8007 182.677 70.4097 182.775 69.8818 183.078C69.5299 183.283 69.2563 183.303 68.8653 183.322C68.4254 183.351 67.8683 183.391 67.2916 183.723C66.666 184.084 66.7442 184.495 66.8028 184.817C66.8615 185.12 66.881 185.296 66.5878 185.462C66.3043 185.628 65.9818 185.609 65.4442 185.57C64.8577 185.521 64.1246 185.462 63.499 185.824C62.981 186.127 62.7953 186.342 62.6389 186.527C62.4923 186.703 62.3652 186.85 61.9546 187.084C61.3779 187.417 61.2998 187.719 61.2313 187.964C61.1727 188.179 61.1238 188.335 60.7719 188.54C60.205 188.863 60.1072 189.166 60.0193 189.4C59.9508 189.605 59.8922 189.772 59.5305 189.977C59.1102 190.221 58.8463 190.309 58.5726 190.407C58.2794 190.514 57.9471 190.632 57.4388 190.915C57.0771 191.12 56.8132 191.149 56.432 191.189C56.0117 191.228 55.4936 191.286 54.9267 191.619C54.3402 191.961 54.2816 192.283 54.2425 192.547C54.2034 192.772 54.1741 192.938 53.832 193.133C53.3823 193.387 53.1477 193.504 52.8936 193.622C52.6297 193.749 52.3658 193.876 51.877 194.149C51.5838 194.316 51.2808 194.306 50.7627 194.276C50.2056 194.247 49.5018 194.208 48.8762 194.56C48.3289 194.873 48.192 195.127 48.065 195.342C47.9574 195.537 47.8695 195.684 47.4883 195.908C47.0484 196.162 46.804 196.26 46.5401 196.368C46.2567 196.485 45.9536 196.602 45.4551 196.886C45.0544 197.12 44.7905 197.188 44.4874 197.267C44.1453 197.355 43.7641 197.452 43.2363 197.755C42.5814 198.136 42.7964 198.625 42.9724 199.006C43.1483 199.397 43.1972 199.592 42.9528 199.739ZM50.753 203.423C50.7236 203.657 50.7041 203.824 50.362 204.019L51.0364 204.41C51.6327 204.068 51.6718 203.736 51.7011 203.462C51.7304 203.228 51.75 203.061 52.0921 202.866C52.659 202.543 52.7665 202.25 52.8545 202.016C52.9327 201.811 52.9914 201.654 53.353 201.439C53.6267 201.283 53.9688 201.312 54.5651 201.39C55.2004 201.469 55.9921 201.566 56.6373 201.185C57.1846 200.872 57.3215 200.628 57.4583 200.413C57.5756 200.228 57.6636 200.071 58.0546 199.846C58.5824 199.544 58.7583 199.329 58.9147 199.133C59.0516 198.957 59.1786 198.811 59.5892 198.576C60.1463 198.254 60.2636 197.99 60.3712 197.765C60.4591 197.57 60.5373 197.413 60.9088 197.198C61.3682 196.934 61.6027 196.807 61.8471 196.68C62.0915 196.553 62.3456 196.416 62.8148 196.143C63.0592 196.006 63.4111 196.035 64.1051 196.143C64.7991 196.25 65.6592 196.397 66.3239 196.016C66.9299 195.664 66.9201 195.293 66.9104 195C66.9104 194.736 66.9006 194.57 67.2231 194.384C67.6532 194.14 67.9074 194.042 68.1811 193.944C68.4841 193.837 68.8066 193.719 69.3051 193.426C69.8036 193.143 70.0089 192.967 70.2044 192.801C70.3804 192.645 70.5563 192.498 70.9864 192.254C71.4262 192 71.6706 191.892 71.9345 191.775C72.2082 191.658 72.4819 191.531 72.9706 191.247C73.5669 190.905 73.5962 190.563 73.6157 190.29C73.6353 190.055 73.6451 189.879 73.9872 189.693C74.2315 189.547 74.5737 189.586 75.2481 189.684C75.9226 189.781 76.7632 189.908 77.4181 189.527C78.0436 189.166 77.9557 188.746 77.8872 188.413C77.8188 188.11 77.7993 187.925 78.0827 187.759C78.3564 187.602 78.6888 187.622 79.2557 187.68C79.8617 187.739 80.6144 187.817 81.2595 187.446C81.9339 187.055 81.6211 186.518 81.367 186.088C81.1422 185.697 81.0053 185.433 81.2497 185.296C81.582 185.101 81.8753 185.101 82.2858 185.081C82.7648 185.071 83.361 185.052 83.9573 184.71C84.2896 184.514 84.5828 184.505 84.9934 184.495C85.4723 184.485 86.0686 184.465 86.6648 184.123C87.3295 183.742 87.0656 183.224 86.8505 182.814C86.6551 182.433 86.5475 182.198 86.8017 182.052C87.0949 181.876 87.3881 181.886 87.9062 181.905C88.4536 181.925 89.128 181.964 89.7536 181.602C90.1739 181.358 90.4183 181.28 90.7115 181.182C91.0145 181.084 91.3566 180.967 91.8649 180.674C92.5003 180.312 92.3927 179.882 92.3048 179.54C92.2266 179.228 92.1973 179.042 92.4807 178.876C92.9597 178.602 93.1845 178.456 93.3995 178.309C93.6146 178.172 93.8296 178.036 94.2792 177.772C94.6116 177.576 94.9048 177.566 95.3153 177.557C95.7845 177.537 96.3808 177.518 96.9673 177.176C97.368 176.941 97.6319 176.873 97.9349 176.795C98.2673 176.707 98.6485 176.609 99.1763 176.306C99.7921 175.944 99.7432 175.553 99.6944 175.231C99.6455 174.928 99.6455 174.762 99.9387 174.596C100.369 174.352 100.623 174.254 100.897 174.166C101.2 174.058 101.512 173.941 102.021 173.658C102.529 173.365 102.724 173.169 102.9 172.993C103.067 172.827 103.213 172.681 103.634 172.446C103.985 172.241 104.259 172.221 104.65 172.192C105.09 172.163 105.637 172.124 106.224 171.782C106.546 171.596 106.859 171.596 107.279 171.586C107.778 171.586 108.404 171.586 109 171.234C109.645 170.863 109.489 170.404 109.352 170.042C109.234 169.7 109.176 169.505 109.449 169.348C109.899 169.084 110.143 168.967 110.388 168.84C110.642 168.713 110.896 168.586 111.375 168.313C111.678 168.137 111.952 168.137 112.46 168.156C112.988 168.176 113.652 168.195 114.268 167.843C114.796 167.541 114.972 167.326 115.128 167.13C115.265 166.954 115.392 166.808 115.793 166.573C116.155 166.368 116.419 166.339 116.79 166.29C117.201 166.241 117.709 166.182 118.276 165.86C118.941 165.479 118.677 164.961 118.462 164.55C118.266 164.169 118.159 163.935 118.413 163.788C118.657 163.642 119.077 163.7 119.723 163.808C120.426 163.925 121.306 164.071 121.971 163.69C122.469 163.397 122.674 163.221 122.86 163.045C123.036 162.889 123.192 162.743 123.623 162.498C124.17 162.186 124.307 161.931 124.424 161.707C124.532 161.511 124.61 161.365 124.991 161.14C125.49 160.857 125.695 160.681 125.89 160.515C126.076 160.358 126.252 160.221 126.682 159.967C127.22 159.655 127.376 159.43 127.513 159.225C127.63 159.049 127.738 158.892 128.129 158.668C128.598 158.394 128.823 158.257 129.057 158.12C129.282 157.984 129.507 157.847 129.976 157.583C130.279 157.407 130.553 157.407 131.051 157.417C131.579 157.427 132.234 157.446 132.84 157.094C133.446 156.743 133.426 156.371 133.417 156.078C133.407 155.795 133.417 155.638 133.72 155.462C134.228 155.169 134.424 154.974 134.599 154.798C134.766 154.632 134.902 154.485 135.323 154.251C135.763 153.997 136.007 153.879 136.261 153.772C136.525 153.655 136.799 153.528 137.287 153.244C137.678 153.019 137.933 152.961 138.265 152.892C138.627 152.814 139.047 152.726 139.585 152.414C139.868 152.247 140.181 152.257 140.718 152.296C141.295 152.335 141.999 152.384 142.634 152.023C143.27 151.661 143.162 151.231 143.074 150.889C142.996 150.576 142.967 150.391 143.25 150.225C143.68 149.98 143.934 149.883 144.198 149.775C144.491 149.658 144.794 149.541 145.283 149.257C145.83 148.945 145.967 148.7 146.094 148.476C146.202 148.29 146.29 148.134 146.671 147.909C147.003 147.723 147.306 147.713 147.727 147.713C148.225 147.713 148.841 147.713 149.437 147.362L148.763 146.971C148.43 147.156 148.127 147.166 147.707 147.166C147.209 147.166 146.593 147.166 145.997 147.518C145.449 147.831 145.312 148.075 145.185 148.3C145.078 148.485 144.99 148.642 144.609 148.866C144.179 149.12 143.924 149.218 143.66 149.316C143.367 149.433 143.064 149.55 142.576 149.834C141.94 150.195 142.048 150.625 142.136 150.967C142.214 151.28 142.243 151.466 141.96 151.632C141.676 151.798 141.363 151.788 140.826 151.749C140.249 151.71 139.545 151.661 138.91 152.023C138.519 152.247 138.265 152.306 137.933 152.375C137.571 152.453 137.151 152.541 136.613 152.853C136.163 153.107 135.929 153.225 135.675 153.342C135.411 153.459 135.137 153.586 134.648 153.87C134.14 154.163 133.945 154.368 133.769 154.544C133.602 154.71 133.466 154.857 133.045 155.091C132.439 155.443 132.459 155.814 132.469 156.107C132.478 156.391 132.469 156.547 132.166 156.723C131.863 156.899 131.589 156.899 131.09 156.889C130.563 156.879 129.908 156.86 129.302 157.212C128.832 157.485 128.608 157.622 128.373 157.759C128.148 157.896 127.923 158.032 127.454 158.296C126.917 158.609 126.76 158.834 126.623 159.039C126.506 159.215 126.399 159.371 126.008 159.596C125.509 159.879 125.304 160.055 125.108 160.221C124.923 160.378 124.747 160.515 124.317 160.769C123.769 161.081 123.632 161.335 123.515 161.56C123.408 161.756 123.329 161.902 122.948 162.127C122.45 162.42 122.244 162.596 122.059 162.772C121.883 162.928 121.726 163.075 121.296 163.319C121.052 163.466 120.632 163.407 119.986 163.3C119.283 163.182 118.403 163.036 117.738 163.417C117.074 163.798 117.338 164.316 117.553 164.726C117.748 165.107 117.856 165.342 117.601 165.488C117.24 165.694 116.976 165.723 116.604 165.772C116.194 165.821 115.686 165.879 115.119 166.202C114.591 166.505 114.415 166.72 114.259 166.915C114.122 167.091 113.995 167.238 113.584 167.472C113.281 167.648 113.007 167.648 112.499 167.628C111.971 167.609 111.307 167.589 110.691 167.941C110.241 168.205 109.997 168.322 109.752 168.449C109.498 168.576 109.244 168.703 108.765 168.977C108.12 169.348 108.286 169.808 108.413 170.169C108.531 170.511 108.589 170.707 108.316 170.863C107.993 171.049 107.68 171.049 107.26 171.049C106.761 171.049 106.136 171.049 105.54 171.4C105.188 171.606 104.914 171.625 104.523 171.654C104.083 171.684 103.536 171.723 102.959 172.065C102.451 172.358 102.255 172.554 102.079 172.729C101.913 172.896 101.767 173.042 101.346 173.277C100.916 173.521 100.662 173.619 100.398 173.707C100.095 173.814 99.7726 173.931 99.274 174.215C98.6582 174.576 98.7071 174.967 98.756 175.29C98.8049 175.593 98.8049 175.759 98.5116 175.925C98.1109 176.159 97.847 176.228 97.544 176.306C97.2116 176.394 96.8304 176.492 96.3026 176.795C95.9605 176.99 95.677 177 95.2665 177.009C94.7973 177.029 94.201 177.049 93.6145 177.391C93.1356 177.664 92.9206 177.811 92.6958 177.957C92.4807 178.094 92.2657 178.231 91.816 178.495C91.1807 178.856 91.2882 179.286 91.3762 179.628C91.4544 179.941 91.4837 180.127 91.2003 180.293C90.7799 180.537 90.5356 180.615 90.2423 180.713C89.9393 180.811 89.5972 180.928 89.0889 181.221C88.7957 181.397 88.5025 181.387 87.9844 181.368C87.437 181.348 86.7626 181.309 86.137 181.671C85.4723 182.052 85.7362 182.57 85.9513 182.98C86.1468 183.361 86.2543 183.596 86.0002 183.742C85.6678 183.938 85.3648 183.948 84.9641 183.957C84.4851 183.967 83.8888 183.987 83.2926 184.329C82.9602 184.524 82.6573 184.524 82.2467 184.544C81.7678 184.553 81.1715 184.573 80.5752 184.915C79.9008 185.306 80.2136 185.843 80.4677 186.273C80.6926 186.664 80.8294 186.928 80.585 187.065C80.3113 187.221 79.979 187.202 79.4121 187.143C78.806 187.084 78.0534 187.006 77.4083 187.377C76.7827 187.739 76.8707 188.159 76.9391 188.491C77.0075 188.794 77.0271 188.98 76.7436 189.146C76.4993 189.293 76.1571 189.254 75.4827 189.156C74.8082 189.058 73.9676 188.931 73.3127 189.312C72.7165 189.654 72.6871 189.996 72.6676 190.27C72.648 190.505 72.6383 190.68 72.2962 190.866C71.8563 191.12 71.6119 191.228 71.348 191.345C71.0743 191.462 70.8006 191.589 70.3119 191.873C69.8134 192.156 69.6082 192.332 69.4127 192.498C69.2367 192.654 69.0608 192.801 68.6307 193.045C68.2006 193.289 67.9465 193.387 67.6728 193.485C67.3698 193.592 67.0472 193.71 66.5487 194.003C65.9427 194.355 65.9525 194.726 65.9622 195.019C65.9622 195.283 65.972 195.449 65.6494 195.635C65.4051 195.772 65.0532 195.742 64.3592 195.635C63.6652 195.527 62.805 195.381 62.1404 195.762C61.681 196.026 61.4464 196.153 61.202 196.28C60.9576 196.407 60.7035 196.544 60.2343 196.817C59.6772 197.14 59.5599 197.403 59.4524 197.628C59.3644 197.824 59.2862 197.98 58.9147 198.195C58.3869 198.498 58.211 198.713 58.0546 198.908C57.9177 199.084 57.7907 199.231 57.3801 199.465C56.8328 199.778 56.6959 200.022 56.5591 200.237C56.4418 200.423 56.3538 200.579 55.9726 200.804C55.6989 200.96 55.3568 200.931 54.7605 200.853C54.1252 200.775 53.3334 200.677 52.6883 201.058C52.1214 201.381 52.0139 201.674 51.9259 201.908C51.8477 202.114 51.7891 202.27 51.4274 202.485C50.8312 202.827 50.792 203.159 50.7627 203.433L50.753 203.423ZM58.8463 207.742C58.5433 207.84 58.2012 207.957 57.6832 208.25L58.3576 208.641C58.7779 208.397 59.032 208.319 59.3155 208.221C59.6185 208.123 59.9606 208.006 60.4787 207.713C61.114 207.351 61.0065 206.921 60.9185 206.579C60.8403 206.267 60.811 206.081 61.0945 205.915C61.5734 205.641 61.7983 205.495 62.0133 205.348C62.2283 205.211 62.4434 205.065 62.9028 204.811C63.2449 204.615 63.5381 204.605 63.9389 204.596C64.4081 204.576 65.0043 204.557 65.5908 204.214C65.9916 203.98 66.2555 203.912 66.5585 203.833C66.8908 203.745 67.272 203.648 67.7999 203.345C68.4254 202.983 68.3668 202.592 68.3179 202.27C68.269 201.967 68.269 201.801 68.5623 201.635C68.9924 201.39 69.2465 201.293 69.5202 201.195C69.8232 201.087 70.1457 200.97 70.6442 200.677C71.1525 200.384 71.348 200.188 71.524 200.013C71.6902 199.846 71.8368 199.7 72.2571 199.456C72.609 199.25 72.8826 199.231 73.2736 199.201C73.7135 199.172 74.2609 199.133 74.8473 198.791C75.1699 198.605 75.4827 198.605 75.903 198.596C76.4015 198.596 77.0271 198.596 77.6233 198.244C78.2684 197.873 78.112 197.413 77.9752 197.052C77.8579 196.71 77.7993 196.514 78.0729 196.358C78.5226 196.094 78.767 195.977 79.0113 195.85C79.2655 195.723 79.5196 195.596 79.9985 195.322C80.3016 195.146 80.5753 195.146 81.0835 195.166C81.6114 195.185 82.276 195.205 82.8918 194.843C83.4197 194.54 83.5956 194.325 83.752 194.13C83.8888 193.954 84.0159 193.807 84.4167 193.573C84.7783 193.368 85.0422 193.329 85.4137 193.289C85.8242 193.241 86.3325 193.182 86.8994 192.86C87.5641 192.478 87.3002 191.961 87.0851 191.55C86.8896 191.169 86.7821 190.934 87.0363 190.788C87.2806 190.641 87.6912 190.7 88.3461 190.807C89.0498 190.925 89.9295 191.071 90.5942 190.69C91.0927 190.397 91.298 190.221 91.4837 190.045C91.6596 189.889 91.816 189.742 92.2461 189.498C92.7935 189.185 92.9303 188.931 93.0476 188.706C93.1552 188.511 93.2333 188.364 93.6145 188.14C94.1131 187.856 94.3183 187.68 94.5138 187.514C94.6995 187.358 94.8755 187.221 95.3056 186.967C95.8432 186.654 95.9996 186.43 96.1364 186.224C96.2537 186.049 96.3612 185.892 96.762 185.667C97.2312 185.394 97.456 185.257 97.6906 185.12C97.9154 184.983 98.15 184.847 98.6094 184.583C98.9124 184.407 99.1861 184.407 99.6944 184.417C100.222 184.426 100.877 184.446 101.483 184.094C102.089 183.742 102.079 183.371 102.06 183.068C102.05 182.785 102.06 182.628 102.363 182.452C102.871 182.159 103.067 181.954 103.243 181.778C103.409 181.612 103.546 181.465 103.966 181.221C104.416 180.967 104.65 180.85 104.904 180.733C105.168 180.615 105.442 180.488 105.931 180.205C106.322 179.98 106.576 179.922 106.908 179.853C107.27 179.775 107.69 179.687 108.228 179.374C108.511 179.208 108.824 179.218 109.361 179.257C109.938 179.296 110.652 179.345 111.277 178.983C111.913 178.622 111.805 178.192 111.717 177.85C111.639 177.537 111.61 177.352 111.893 177.185C112.323 176.931 112.577 176.834 112.841 176.736C113.134 176.619 113.437 176.501 113.936 176.218C114.483 175.905 114.62 175.661 114.747 175.436C114.855 175.241 114.943 175.094 115.324 174.869C115.656 174.684 115.959 174.674 116.38 174.674C116.878 174.674 117.494 174.674 118.09 174.322C118.462 174.107 118.735 174.058 119.077 174.01C119.478 173.951 119.928 173.873 120.485 173.56C121.081 173.218 121.101 172.866 121.12 172.593C121.14 172.358 121.15 172.182 121.482 171.987C122.01 171.684 122.176 171.449 122.323 171.244C122.45 171.068 122.557 170.912 122.958 170.687C123.261 170.511 123.535 170.511 124.033 170.521C124.551 170.531 125.196 170.54 125.812 170.189C126.223 169.954 126.477 169.876 126.77 169.798C127.093 169.71 127.464 169.602 127.982 169.299C128.51 168.997 128.686 168.782 128.832 168.586C128.969 168.41 129.087 168.264 129.497 168.029C130.044 167.716 130.181 167.462 130.308 167.247C130.416 167.052 130.504 166.905 130.885 166.681C131.403 166.387 131.589 166.172 131.755 165.997C131.911 165.83 132.039 165.684 132.459 165.44C133.006 165.127 133.143 164.873 133.26 164.648C133.358 164.453 133.446 164.306 133.827 164.081C134.091 163.925 134.472 163.974 135.069 164.052C135.724 164.14 136.545 164.257 137.19 163.876C137.659 163.602 137.884 163.456 138.109 163.319C138.324 163.182 138.539 163.045 138.998 162.782C139.526 162.479 139.702 162.264 139.848 162.068C139.985 161.892 140.103 161.746 140.513 161.511C141.109 161.169 141.139 160.827 141.158 160.544C141.178 160.309 141.188 160.133 141.52 159.948C141.794 159.791 142.136 159.821 142.712 159.879C143.338 159.948 144.11 160.036 144.755 159.664C145.332 159.332 145.41 159.019 145.469 158.775C145.527 158.55 145.567 158.394 145.918 158.189C146.515 157.847 146.544 157.505 146.564 157.231C146.583 156.997 146.603 156.83 146.935 156.635C147.238 156.459 147.512 156.459 148.02 156.479C148.548 156.498 149.212 156.518 149.828 156.166C150.376 155.853 150.512 155.599 150.63 155.374C150.728 155.179 150.815 155.032 151.197 154.808C151.607 154.573 151.861 154.495 152.155 154.397C152.467 154.3 152.819 154.192 153.337 153.899C153.826 153.616 154.041 153.459 154.246 153.303C154.442 153.156 154.637 153.019 155.077 152.756C155.566 152.472 155.781 152.306 155.976 152.14C156.162 151.993 156.338 151.847 156.778 151.593L156.104 151.202C155.615 151.485 155.4 151.651 155.204 151.818C155.019 151.964 154.843 152.111 154.403 152.365C153.914 152.648 153.699 152.804 153.494 152.961C153.298 153.107 153.103 153.244 152.663 153.508C152.252 153.752 151.998 153.831 151.705 153.918C151.392 154.016 151.04 154.124 150.532 154.417C149.985 154.73 149.848 154.984 149.731 155.208C149.633 155.404 149.555 155.55 149.173 155.775C148.87 155.951 148.597 155.951 148.088 155.931C147.561 155.912 146.896 155.892 146.28 156.244C145.684 156.586 145.655 156.928 145.635 157.202C145.615 157.436 145.596 157.602 145.264 157.798C144.687 158.13 144.609 158.443 144.55 158.687C144.491 158.902 144.452 159.068 144.1 159.273C143.827 159.43 143.485 159.401 142.908 159.342C142.282 159.273 141.51 159.186 140.875 159.557C140.278 159.899 140.259 160.241 140.23 160.524C140.21 160.759 140.2 160.935 139.868 161.12C139.34 161.423 139.164 161.638 139.018 161.834C138.881 162.01 138.763 162.156 138.353 162.391C137.884 162.664 137.659 162.811 137.434 162.948C137.219 163.085 137.004 163.221 136.545 163.485C136.281 163.642 135.899 163.593 135.313 163.514C134.658 163.427 133.837 163.309 133.192 163.69C132.645 164.003 132.508 164.257 132.39 164.482C132.293 164.677 132.205 164.824 131.823 165.049C131.305 165.342 131.12 165.557 130.954 165.733C130.797 165.899 130.67 166.045 130.25 166.29C129.702 166.602 129.566 166.856 129.438 167.071C129.331 167.267 129.243 167.413 128.862 167.638C128.334 167.941 128.158 168.156 128.011 168.352C127.875 168.527 127.757 168.674 127.347 168.909C126.936 169.143 126.682 169.221 126.389 169.299C126.066 169.387 125.695 169.495 125.177 169.798C124.874 169.974 124.6 169.974 124.102 169.964C123.583 169.954 122.938 169.944 122.323 170.296C121.795 170.599 121.629 170.834 121.482 171.039C121.355 171.215 121.247 171.371 120.847 171.596C120.25 171.938 120.231 172.29 120.211 172.563C120.192 172.798 120.182 172.974 119.85 173.169C119.478 173.384 119.204 173.433 118.862 173.482C118.462 173.54 118.012 173.619 117.465 173.931C117.132 174.117 116.829 174.127 116.409 174.127C115.91 174.127 115.295 174.127 114.698 174.479C114.151 174.791 114.014 175.036 113.887 175.26C113.78 175.456 113.692 175.602 113.301 175.827C112.871 176.081 112.616 176.179 112.352 176.277C112.059 176.394 111.756 176.511 111.258 176.795C110.622 177.156 110.73 177.586 110.818 177.928C110.896 178.241 110.925 178.426 110.642 178.593C110.358 178.759 110.046 178.749 109.518 178.71C108.941 178.671 108.228 178.622 107.602 178.983C107.211 179.208 106.957 179.267 106.625 179.335C106.263 179.413 105.843 179.501 105.305 179.814C104.855 180.068 104.621 180.185 104.357 180.303C104.093 180.42 103.819 180.547 103.33 180.83C102.822 181.123 102.627 181.329 102.451 181.505C102.285 181.671 102.148 181.817 101.727 182.062C101.121 182.413 101.131 182.785 101.151 183.078C101.161 183.361 101.151 183.518 100.848 183.693C100.545 183.869 100.271 183.869 99.7628 183.86C99.235 183.85 98.5801 183.83 97.974 184.182C97.5049 184.456 97.28 184.592 97.0454 184.729C96.8206 184.866 96.586 185.003 96.1266 185.267C95.589 185.579 95.4326 185.804 95.2958 186.009C95.1785 186.185 95.071 186.342 94.6702 186.566C94.1717 186.85 93.9664 187.026 93.7709 187.192C93.5852 187.348 93.4093 187.485 92.9792 187.739C92.4318 188.052 92.295 188.306 92.1777 188.531C92.0702 188.726 91.992 188.873 91.6108 189.097C91.1123 189.39 90.907 189.566 90.7213 189.742C90.5453 189.899 90.3889 190.045 89.9589 190.29C89.7145 190.436 89.2942 190.377 88.6491 190.27C87.9453 190.153 87.0656 190.006 86.4009 190.387C85.7362 190.768 86.0002 191.286 86.2152 191.697C86.4107 192.078 86.5182 192.312 86.2641 192.459C85.9024 192.664 85.6385 192.703 85.2671 192.742C84.8565 192.791 84.3482 192.85 83.7813 193.172C83.2535 193.475 83.0776 193.69 82.9212 193.886C82.7843 194.061 82.6572 194.208 82.2565 194.443C81.9535 194.618 81.6798 194.618 81.1715 194.599C80.6437 194.579 79.979 194.56 79.3632 194.921C78.9136 195.185 78.6692 195.303 78.4248 195.43C78.1707 195.557 77.9166 195.684 77.4376 195.957C76.7925 196.329 76.9489 196.788 77.0857 197.149C77.203 197.491 77.2617 197.687 76.988 197.843C76.6654 198.029 76.3526 198.029 75.9323 198.039C75.4338 198.039 74.8083 198.039 74.212 198.39C73.8601 198.596 73.5864 198.615 73.1954 198.644C72.7556 198.674 72.2082 198.713 71.6217 199.055C71.1134 199.348 70.9179 199.544 70.742 199.719C70.5758 199.886 70.4292 200.032 70.0089 200.276C69.5788 200.521 69.3247 200.618 69.051 200.716C68.748 200.824 68.4254 200.941 67.9269 201.234C67.3013 201.596 67.36 201.986 67.4089 202.309C67.448 202.612 67.4577 202.778 67.1645 202.944C66.7637 203.179 66.4998 203.247 66.1968 203.325C65.8645 203.413 65.4833 203.511 64.9555 203.814C64.6133 204.009 64.3201 204.019 63.9194 204.029C63.4502 204.048 62.8539 204.068 62.2674 204.41C61.7885 204.684 61.5637 204.83 61.3486 204.977C61.1336 205.114 60.9186 205.26 60.4689 205.514C59.8336 205.876 59.9411 206.306 60.0291 206.648C60.1072 206.96 60.1366 207.146 59.8531 207.312C59.4328 207.556 59.1787 207.635 58.8952 207.732L58.8463 207.742ZM65.6592 211.778C65.4344 211.915 65.1998 212.052 64.7404 212.315L65.4149 212.706C65.884 212.433 66.1186 212.296 66.3434 212.159C66.5682 212.022 66.8028 211.885 67.2622 211.622C67.5653 211.446 67.8487 211.446 68.3472 211.455C68.8751 211.465 69.53 211.485 70.1458 211.133C70.7518 210.781 70.742 210.41 70.7225 210.107C70.7127 209.824 70.7225 209.667 71.0255 209.482C71.5338 209.188 71.7292 208.983 71.9052 208.807C72.0713 208.641 72.2082 208.495 72.6285 208.25C73.0782 207.996 73.3127 207.879 73.5766 207.762C73.8405 207.644 74.1142 207.517 74.603 207.234C74.994 207.009 75.2481 206.951 75.5804 206.882C75.9421 206.804 76.3624 206.716 76.9 206.403C77.1933 206.237 77.506 206.247 78.0339 206.286C78.6106 206.325 79.3241 206.374 79.9497 206.013C80.585 205.651 80.4775 205.221 80.3895 204.879C80.3113 204.566 80.282 204.381 80.5655 204.214C80.9956 203.96 81.2497 203.863 81.5136 203.765C81.8069 203.648 82.1099 203.53 82.6084 203.247C83.1558 202.934 83.2926 202.69 83.4197 202.465C83.5272 202.27 83.6152 202.123 84.0061 201.899C84.3385 201.713 84.6415 201.703 85.0618 201.703C85.5603 201.703 86.1761 201.703 86.7723 201.351C87.1535 201.136 87.4175 201.087 87.7596 201.039C88.1603 200.98 88.61 200.902 89.1671 200.579C89.7634 200.237 89.7829 199.886 89.8025 199.612C89.822 199.377 89.8318 199.202 90.1641 199.006C90.6919 198.703 90.8581 198.469 91.0047 198.263C91.1318 198.088 91.2393 197.931 91.6401 197.706C91.9431 197.53 92.2168 197.531 92.7153 197.54C93.2334 197.55 93.8883 197.56 94.4943 197.208C94.9048 196.974 95.1589 196.895 95.4522 196.817C95.7747 196.729 96.1462 196.622 96.6642 196.319C97.1921 196.016 97.3582 195.801 97.5146 195.605C97.6515 195.43 97.7688 195.283 98.1793 195.048C98.7267 194.736 98.8635 194.482 98.9906 194.267C99.0981 194.071 99.1861 193.925 99.5673 193.7C100.085 193.407 100.271 193.192 100.437 193.016C100.594 192.85 100.721 192.703 101.141 192.459C101.688 192.146 101.825 191.892 101.943 191.667C102.04 191.472 102.128 191.325 102.509 191.101C102.773 190.944 103.155 190.993 103.751 191.071C104.406 191.159 105.227 191.267 105.872 190.895C106.341 190.622 106.566 190.475 106.791 190.338C107.006 190.202 107.221 190.065 107.68 189.801C108.208 189.498 108.384 189.283 108.54 189.088C108.677 188.912 108.804 188.765 109.205 188.531C109.801 188.189 109.831 187.847 109.85 187.563C109.87 187.329 109.879 187.153 110.212 186.957C110.486 186.801 110.828 186.83 111.404 186.889C112.03 186.957 112.802 187.045 113.437 186.674C114.014 186.342 114.092 186.029 114.151 185.785C114.21 185.56 114.249 185.404 114.601 185.198C115.197 184.856 115.226 184.514 115.246 184.241C115.265 184.006 115.285 183.84 115.617 183.645C115.92 183.469 116.194 183.469 116.702 183.488C117.23 183.508 117.895 183.527 118.51 183.176C119.058 182.863 119.195 182.609 119.312 182.384C119.41 182.189 119.498 182.042 119.879 181.817C120.299 181.573 120.544 181.495 120.837 181.407C121.15 181.309 121.501 181.202 122.02 180.899C122.508 180.615 122.723 180.459 122.929 180.303C123.124 180.156 123.32 180.009 123.759 179.755C124.248 179.472 124.463 179.306 124.659 179.14C124.844 178.993 125.02 178.847 125.46 178.593C126.008 178.28 126.144 178.026 126.271 177.811C126.379 177.615 126.467 177.469 126.848 177.244C127.2 177.039 127.474 177.019 127.855 176.99C128.285 176.951 128.832 176.912 129.409 176.58C129.976 176.257 130.084 175.964 130.172 175.729C130.25 175.524 130.308 175.368 130.67 175.153C130.973 174.977 131.247 174.987 131.765 175.006C132.302 175.026 132.977 175.055 133.593 174.694C134.101 174.4 134.296 174.205 134.472 174.029C134.639 173.863 134.775 173.716 135.196 173.482C135.753 173.159 135.87 172.876 135.968 172.651C136.056 172.456 136.115 172.29 136.486 172.084C136.857 171.869 137.131 171.83 137.473 171.772C137.854 171.713 138.333 171.645 138.89 171.322C139.506 170.961 139.457 170.57 139.409 170.257C139.369 169.954 139.36 169.788 139.653 169.622C140.142 169.339 140.357 169.172 140.552 169.006C140.738 168.85 140.914 168.713 141.354 168.459C141.686 168.264 141.979 168.254 142.39 168.244C142.869 168.234 143.455 168.215 144.051 167.873C144.482 167.628 144.736 167.531 145 167.433C145.303 167.326 145.615 167.208 146.124 166.925C146.534 166.69 146.788 166.612 147.082 166.524C147.394 166.427 147.756 166.319 148.274 166.026C148.821 165.713 148.958 165.469 149.085 165.254C149.193 165.068 149.281 164.912 149.672 164.687C150.239 164.365 150.337 164.071 150.425 163.837C150.493 163.632 150.552 163.475 150.913 163.26C151.187 163.104 151.529 163.133 152.116 163.212C152.751 163.29 153.543 163.378 154.188 163.006C154.755 162.684 154.862 162.391 154.95 162.166C155.028 161.961 155.087 161.804 155.449 161.589C156.016 161.257 156.113 160.964 156.182 160.72C156.25 160.505 156.299 160.348 156.651 160.143C157.003 159.938 157.277 159.909 157.658 159.879C158.078 159.84 158.606 159.791 159.183 159.459C159.749 159.127 159.837 158.824 159.916 158.58C159.974 158.365 160.023 158.208 160.385 158.003C160.737 157.798 161.01 157.778 161.392 157.749C161.822 157.71 162.369 157.671 162.946 157.339C163.464 157.045 163.65 156.831 163.816 156.655C163.972 156.488 164.099 156.342 164.51 156.098L163.835 155.707C163.317 156 163.131 156.215 162.965 156.391C162.809 156.557 162.682 156.703 162.271 156.948C161.919 157.153 161.646 157.173 161.265 157.202C160.834 157.231 160.287 157.28 159.71 157.612C159.143 157.944 159.055 158.247 158.977 158.492C158.919 158.707 158.87 158.863 158.518 159.068C158.156 159.273 157.892 159.303 157.511 159.332C157.091 159.371 156.563 159.42 155.986 159.752C155.419 160.085 155.322 160.378 155.253 160.622C155.185 160.837 155.136 160.993 154.784 161.199C154.217 161.521 154.11 161.814 154.022 162.039C153.943 162.244 153.885 162.4 153.523 162.615C153.249 162.772 152.907 162.743 152.321 162.664C151.685 162.586 150.894 162.498 150.249 162.87C149.682 163.192 149.584 163.485 149.496 163.72C149.428 163.925 149.369 164.081 149.007 164.296C148.46 164.609 148.323 164.853 148.196 165.068C148.088 165.254 148 165.41 147.609 165.635C147.199 165.87 146.945 165.948 146.652 166.036C146.339 166.133 145.977 166.241 145.459 166.534C145.029 166.778 144.775 166.876 144.511 166.974C144.208 167.081 143.895 167.198 143.387 167.482C143.054 167.677 142.761 167.687 142.351 167.697C141.872 167.707 141.285 167.726 140.689 168.068C140.2 168.352 139.985 168.518 139.79 168.684C139.604 168.84 139.428 168.977 138.988 169.231C138.372 169.593 138.421 169.983 138.47 170.296C138.509 170.599 138.519 170.765 138.226 170.931C137.854 171.146 137.581 171.185 137.239 171.244C136.857 171.303 136.378 171.371 135.821 171.694C135.264 172.016 135.147 172.299 135.049 172.524C134.961 172.72 134.902 172.886 134.531 173.091C134.023 173.384 133.827 173.58 133.651 173.755C133.485 173.922 133.348 174.068 132.928 174.303C132.625 174.479 132.351 174.469 131.833 174.449C131.296 174.43 130.621 174.4 130.005 174.762C129.438 175.084 129.331 175.378 129.243 175.602C129.165 175.808 129.106 175.964 128.744 176.179C128.393 176.384 128.119 176.404 127.738 176.433C127.308 176.472 126.76 176.511 126.184 176.843C125.636 177.156 125.499 177.41 125.372 177.625C125.265 177.821 125.177 177.967 124.796 178.192C124.307 178.475 124.092 178.641 123.896 178.808C123.711 178.954 123.535 179.101 123.095 179.355C122.606 179.638 122.391 179.794 122.186 179.951C121.99 180.097 121.795 180.244 121.355 180.498C120.935 180.742 120.69 180.821 120.397 180.908C120.084 181.006 119.732 181.114 119.214 181.417C118.667 181.729 118.53 181.983 118.413 182.208C118.315 182.404 118.227 182.55 117.846 182.775C117.543 182.951 117.269 182.951 116.761 182.931C116.233 182.912 115.568 182.892 114.953 183.244C114.356 183.586 114.327 183.928 114.298 184.202C114.278 184.436 114.259 184.602 113.926 184.798C113.349 185.13 113.271 185.443 113.213 185.687C113.154 185.912 113.115 186.068 112.763 186.273C112.489 186.43 112.147 186.4 111.571 186.342C110.945 186.273 110.173 186.185 109.537 186.557C108.941 186.899 108.912 187.241 108.892 187.524C108.873 187.759 108.863 187.934 108.531 188.13C108.003 188.433 107.827 188.648 107.68 188.843C107.543 189.019 107.416 189.166 107.016 189.4C106.546 189.674 106.322 189.82 106.097 189.957C105.882 190.094 105.667 190.231 105.207 190.495C104.943 190.651 104.562 190.602 103.966 190.524C103.311 190.436 102.49 190.329 101.845 190.7C101.297 191.013 101.161 191.267 101.043 191.491C100.946 191.687 100.858 191.833 100.476 192.058C99.9583 192.351 99.7726 192.566 99.6064 192.742C99.45 192.908 99.3229 193.055 98.9026 193.299C98.3552 193.612 98.2184 193.866 98.0913 194.081C97.9838 194.276 97.8958 194.423 97.5146 194.648C96.9868 194.951 96.8109 195.166 96.6642 195.361C96.5274 195.537 96.4101 195.684 95.9996 195.918C95.589 196.153 95.3349 196.231 95.0417 196.309C94.7191 196.397 94.3476 196.504 93.8296 196.807C93.5266 196.983 93.2529 196.983 92.7544 196.973C92.2364 196.964 91.5815 196.954 90.9754 197.306C90.4476 197.609 90.2814 197.843 90.1348 198.048C90.0077 198.224 89.9002 198.381 89.4995 198.605C88.9032 198.947 88.8837 199.299 88.8641 199.573C88.8446 199.807 88.8348 199.983 88.5025 200.179C88.1212 200.394 87.8573 200.443 87.5152 200.491C87.1145 200.55 86.6648 200.628 86.1077 200.951C85.7753 201.136 85.4723 201.146 85.052 201.146C84.5535 201.146 83.9377 201.146 83.3415 201.498C82.7941 201.811 82.6572 202.055 82.5302 202.28C82.4226 202.475 82.3347 202.622 81.9437 202.846C81.5136 203.1 81.2595 203.198 80.9956 203.296C80.7023 203.413 80.3993 203.53 79.9008 203.814C79.2654 204.175 79.373 204.605 79.461 204.947C79.5392 205.26 79.5685 205.446 79.285 205.612C78.9918 205.778 78.679 205.768 78.1512 205.729C77.5745 205.69 76.8609 205.641 76.2353 206.003C75.8443 206.228 75.5902 206.286 75.2579 206.355C74.8962 206.433 74.4759 206.521 73.9383 206.833C73.4887 207.087 73.2541 207.205 72.9902 207.322C72.7263 207.439 72.4526 207.566 71.9638 207.85C71.4555 208.143 71.2601 208.348 71.0841 208.524C70.9179 208.69 70.7811 208.837 70.3608 209.081C69.7548 209.433 69.7646 209.804 69.7841 210.107C69.7939 210.39 69.7841 210.547 69.4811 210.723C69.1781 210.898 68.8946 210.898 68.3961 210.889C67.8683 210.879 67.2134 210.859 66.5976 211.211C66.1284 211.485 65.8938 211.622 65.669 211.758L65.6592 211.778ZM74.6812 216.996C74.4661 217.133 74.2511 217.27 73.7917 217.534L74.4661 217.924C74.9451 217.651 75.1699 217.504 75.3947 217.358C75.6098 217.221 75.8248 217.084 76.2842 216.81C76.812 216.508 76.988 216.293 77.1444 216.097C77.2812 215.921 77.4083 215.775 77.809 215.54C78.4053 215.198 78.4346 214.856 78.4542 214.573C78.4737 214.338 78.4835 214.162 78.8256 213.967C79.0993 213.811 79.4414 213.84 80.0181 213.898C80.6437 213.967 81.4159 214.055 82.061 213.683C82.6377 213.351 82.7159 213.039 82.7745 212.794C82.8332 212.569 82.8723 212.413 83.2242 212.208C83.8204 211.866 83.8498 211.524 83.8693 211.25C83.8889 211.016 83.9084 210.84 84.2407 210.654C84.5437 210.478 84.8174 210.478 85.3257 210.498C85.8633 210.517 86.5182 210.537 87.134 210.175C87.6814 209.863 87.8182 209.609 87.9355 209.384C88.0333 209.188 88.1212 209.042 88.5025 208.817C88.9228 208.573 89.1671 208.495 89.4603 208.407C89.7731 208.309 90.125 208.201 90.6431 207.898C91.1318 207.615 91.3469 207.459 91.5521 207.302C91.7476 207.156 91.9431 207.009 92.383 206.755C92.8717 206.472 93.0867 206.306 93.292 206.14C93.4777 205.993 93.6537 205.846 94.0935 205.592C94.6409 205.28 94.7777 205.026 94.9048 204.811C95.0123 204.615 95.1003 204.469 95.4815 204.244C95.8334 204.039 96.1071 204.019 96.4981 203.99C96.9282 203.951 97.4755 203.912 98.0522 203.579C98.6192 203.257 98.7267 202.964 98.8146 202.739C98.8928 202.534 98.9515 202.377 99.3132 202.162C99.6162 201.986 99.8899 201.996 100.408 202.016C100.946 202.035 101.62 202.065 102.236 201.703C102.744 201.41 102.94 201.215 103.115 201.039C103.282 200.872 103.428 200.726 103.849 200.482C104.406 200.159 104.523 199.876 104.621 199.651C104.709 199.456 104.767 199.289 105.139 199.084C105.51 198.869 105.784 198.83 106.126 198.772C106.507 198.713 106.986 198.645 107.543 198.322C108.159 197.96 108.11 197.57 108.061 197.257C108.022 196.954 108.013 196.788 108.306 196.622C108.795 196.338 109.01 196.172 109.205 196.006C109.391 195.85 109.567 195.713 110.007 195.459C110.339 195.263 110.642 195.254 111.043 195.244C111.522 195.234 112.108 195.215 112.704 194.873C113.134 194.628 113.389 194.531 113.652 194.433C113.955 194.325 114.268 194.208 114.777 193.915C115.187 193.68 115.441 193.602 115.734 193.514C116.047 193.417 116.409 193.309 116.927 193.016C117.474 192.703 117.611 192.459 117.738 192.244C117.846 192.058 117.934 191.902 118.325 191.677C118.892 191.355 118.989 191.061 119.077 190.827C119.146 190.622 119.204 190.465 119.566 190.25C119.84 190.094 120.182 190.123 120.768 190.192C121.404 190.27 122.195 190.358 122.841 189.987C123.408 189.664 123.515 189.371 123.603 189.146C123.681 188.941 123.74 188.785 124.102 188.57C124.668 188.237 124.766 187.944 124.835 187.7C124.903 187.485 124.952 187.329 125.304 187.123C125.665 186.918 125.929 186.889 126.311 186.86C126.731 186.82 127.259 186.772 127.835 186.439C128.412 186.107 128.5 185.804 128.569 185.56C128.627 185.345 128.676 185.189 129.038 184.983C129.39 184.778 129.663 184.759 130.044 184.729C130.475 184.69 131.022 184.651 131.599 184.319C132.117 184.026 132.302 183.811 132.469 183.635C132.625 183.469 132.752 183.322 133.172 183.078C133.729 182.755 133.847 182.501 133.964 182.267C134.062 182.071 134.13 181.915 134.511 181.7C134.814 181.524 135.088 181.514 135.587 181.524C136.105 181.524 136.74 181.544 137.356 181.192C137.962 180.84 137.962 180.488 137.962 180.195C137.962 179.951 137.962 179.775 138.294 179.589C138.646 179.384 138.92 179.365 139.311 179.335C139.751 179.306 140.288 179.257 140.875 178.925C141.227 178.72 141.5 178.69 141.882 178.661C142.302 178.622 142.83 178.573 143.397 178.241C143.924 177.938 144.091 177.713 144.247 177.518C144.384 177.342 144.491 177.195 144.892 176.961C145.508 176.609 145.479 176.228 145.459 175.925C145.439 175.632 145.439 175.475 145.742 175.299C146.094 175.094 146.368 175.075 146.759 175.045C147.199 175.016 147.737 174.967 148.313 174.635C148.861 174.322 148.997 174.068 149.124 173.853C149.232 173.658 149.31 173.511 149.701 173.286C149.994 173.12 150.288 173.13 150.816 173.159C151.373 173.189 152.067 173.228 152.692 172.876C153.288 172.534 153.308 172.182 153.318 171.899C153.328 171.664 153.337 171.488 153.67 171.293C154.139 171.019 154.364 170.883 154.588 170.736C154.804 170.599 155.028 170.462 155.488 170.198C156.035 169.886 156.172 169.641 156.299 169.417C156.407 169.231 156.495 169.075 156.886 168.85C157.433 168.537 157.57 168.283 157.687 168.068C157.795 167.873 157.873 167.726 158.264 167.501C158.606 167.306 158.889 167.296 159.29 167.277C159.759 167.257 160.336 167.238 160.922 166.896C161.44 166.593 161.626 166.387 161.792 166.202C161.939 166.036 162.076 165.889 162.486 165.645C162.956 165.371 163.18 165.234 163.415 165.098C163.64 164.961 163.865 164.824 164.334 164.56C164.627 164.384 164.91 164.394 165.429 164.414C165.966 164.433 166.641 164.462 167.256 164.101C167.696 163.847 167.941 163.739 168.205 163.632C168.478 163.514 168.762 163.387 169.25 163.104C169.876 162.743 169.798 162.332 169.729 162.01C169.671 161.707 169.651 161.531 169.935 161.365C170.443 161.072 170.638 160.886 170.824 160.71C170.99 160.554 171.147 160.407 171.567 160.163L170.893 159.772C170.384 160.065 170.189 160.251 170.003 160.427C169.837 160.583 169.68 160.729 169.26 160.974C168.635 161.335 168.713 161.746 168.781 162.068C168.84 162.371 168.859 162.547 168.576 162.713C168.136 162.967 167.892 163.075 167.628 163.182C167.354 163.3 167.071 163.427 166.582 163.7C166.279 163.876 166.005 163.866 165.487 163.847C164.95 163.827 164.275 163.798 163.659 164.159C163.19 164.433 162.965 164.57 162.731 164.707C162.506 164.843 162.281 164.98 161.812 165.244C161.294 165.547 161.108 165.752 160.942 165.938C160.795 166.104 160.668 166.251 160.248 166.495C159.906 166.69 159.622 166.7 159.212 166.72C158.743 166.739 158.166 166.759 157.58 167.101C157.032 167.413 156.895 167.668 156.778 167.883C156.67 168.078 156.592 168.225 156.201 168.449C155.654 168.762 155.517 169.006 155.39 169.221C155.282 169.407 155.195 169.563 154.804 169.788C154.334 170.062 154.11 170.198 153.885 170.345C153.67 170.482 153.445 170.619 152.985 170.883C152.389 171.225 152.37 171.576 152.36 171.86C152.35 172.094 152.34 172.27 152.008 172.466C151.715 172.632 151.422 172.622 150.894 172.593C150.337 172.563 149.643 172.524 149.017 172.876C148.47 173.189 148.333 173.443 148.206 173.658C148.098 173.853 148.02 174 147.629 174.224C147.277 174.43 147.003 174.449 146.612 174.479C146.173 174.508 145.635 174.557 145.058 174.889C144.442 175.241 144.472 175.622 144.491 175.925C144.511 176.218 144.511 176.374 144.208 176.55C143.68 176.853 143.514 177.078 143.357 177.273C143.221 177.449 143.113 177.596 142.712 177.83C142.351 178.036 142.087 178.065 141.706 178.094C141.285 178.133 140.757 178.182 140.191 178.514C139.839 178.72 139.565 178.739 139.174 178.768C138.734 178.798 138.197 178.847 137.62 179.179C137.014 179.531 137.014 179.882 137.014 180.176C137.014 180.42 137.014 180.596 136.681 180.791C136.378 180.967 136.105 180.977 135.606 180.967C135.088 180.967 134.453 180.948 133.837 181.299C133.28 181.622 133.163 181.876 133.045 182.11C132.948 182.306 132.879 182.462 132.498 182.677C131.98 182.97 131.794 183.185 131.628 183.361C131.472 183.527 131.345 183.674 130.924 183.918C130.572 184.123 130.299 184.143 129.917 184.172C129.487 184.211 128.94 184.25 128.363 184.583C127.787 184.915 127.699 185.218 127.63 185.462C127.572 185.677 127.523 185.834 127.161 186.039C126.799 186.244 126.535 186.273 126.154 186.303C125.734 186.342 125.206 186.391 124.629 186.723C124.062 187.055 123.965 187.348 123.896 187.592C123.828 187.807 123.779 187.964 123.427 188.169C122.86 188.492 122.753 188.785 122.665 189.009C122.586 189.215 122.528 189.371 122.166 189.586C121.892 189.742 121.55 189.713 120.964 189.645C120.329 189.566 119.537 189.478 118.892 189.85C118.325 190.172 118.227 190.465 118.139 190.7C118.071 190.905 118.012 191.062 117.65 191.276C117.103 191.589 116.966 191.833 116.839 192.048C116.731 192.234 116.644 192.39 116.253 192.615C115.842 192.85 115.588 192.928 115.295 193.016C114.982 193.114 114.62 193.221 114.102 193.514C113.672 193.759 113.418 193.856 113.154 193.954C112.851 194.061 112.538 194.179 112.03 194.472C111.698 194.667 111.395 194.677 110.994 194.687C110.515 194.697 109.928 194.716 109.332 195.058C108.843 195.342 108.628 195.508 108.433 195.674C108.247 195.83 108.071 195.967 107.631 196.221C107.016 196.583 107.064 196.974 107.113 197.286C107.152 197.589 107.162 197.755 106.869 197.921C106.497 198.136 106.224 198.175 105.882 198.234C105.5 198.293 105.022 198.361 104.464 198.684C103.907 199.006 103.79 199.289 103.692 199.514C103.604 199.71 103.546 199.876 103.174 200.081C102.666 200.374 102.47 200.57 102.294 200.745C102.128 200.912 101.991 201.058 101.571 201.293C101.268 201.469 100.994 201.459 100.476 201.439C99.9387 201.42 99.2643 201.39 98.6485 201.752C98.0816 202.074 97.974 202.368 97.8861 202.592C97.8079 202.798 97.7492 202.954 97.3876 203.169C97.0357 203.374 96.762 203.394 96.371 203.423C95.9409 203.462 95.3935 203.501 94.8168 203.833C94.2695 204.146 94.1326 204.4 94.0056 204.615C93.898 204.811 93.8101 204.957 93.4289 205.182C92.9401 205.465 92.7251 205.631 92.5198 205.798C92.3341 205.944 92.1582 206.091 91.7183 206.345C91.2296 206.628 91.0145 206.785 90.8092 206.941C90.6138 207.087 90.4183 207.234 89.9784 207.488C89.5581 207.732 89.3137 207.811 89.0205 207.898C88.7077 207.996 88.3558 208.104 87.8378 208.407C87.2904 208.719 87.1536 208.973 87.0363 209.198C86.9385 209.394 86.8505 209.54 86.4693 209.765C86.1663 209.941 85.8926 209.941 85.3844 209.921C84.8565 209.902 84.1918 209.882 83.576 210.244C82.9798 210.586 82.9505 210.928 82.9212 211.201C82.9016 211.436 82.8821 211.602 82.5497 211.798C81.973 212.13 81.8948 212.442 81.8362 212.687C81.7775 212.911 81.7384 213.068 81.3866 213.273C81.1129 213.429 80.7707 213.4 80.194 213.341C79.5685 213.273 78.7963 213.185 78.1512 213.556C77.5549 213.898 77.5256 214.24 77.506 214.524C77.4865 214.758 77.4767 214.934 77.1444 215.13C76.6166 215.433 76.4406 215.648 76.2842 215.843C76.1474 216.019 76.0203 216.166 75.6195 216.4C75.1406 216.674 74.9158 216.82 74.6909 216.967L74.6812 216.996ZM81.7677 220.983C81.4647 221.091 81.152 221.208 80.6437 221.501L81.3181 221.892C81.7482 221.648 82.0024 221.55 82.276 221.452C82.5791 221.345 82.8918 221.227 83.4001 220.934C83.8106 220.7 84.0648 220.622 84.3678 220.534C84.6903 220.436 85.0422 220.328 85.5603 220.035C86.1077 219.723 86.2445 219.478 86.3716 219.263C86.4791 219.078 86.5671 218.921 86.958 218.696C87.525 218.374 87.6325 218.081 87.7107 217.846C87.7791 217.641 87.8378 217.485 88.1994 217.27C88.4731 217.113 88.8152 217.143 89.4115 217.211C90.0468 217.289 90.8386 217.377 91.4837 217.006C92.0506 216.683 92.1581 216.39 92.2461 216.166C92.3243 215.96 92.383 215.804 92.7446 215.589C93.3116 215.257 93.4093 214.964 93.4777 214.719C93.5461 214.504 93.595 214.348 93.9567 214.143C94.3183 213.938 94.5822 213.908 94.9634 213.879C95.3838 213.84 95.9116 213.791 96.4883 213.459C97.065 213.126 97.153 212.824 97.2214 212.579C97.28 212.364 97.3289 212.208 97.6906 212.003C98.0425 211.797 98.3162 211.778 98.7071 211.749C99.1372 211.71 99.6846 211.67 100.261 211.338C100.779 211.045 100.965 210.83 101.131 210.654C101.288 210.488 101.415 210.341 101.835 210.097C102.392 209.775 102.509 209.521 102.627 209.286C102.724 209.091 102.793 208.934 103.174 208.719C103.477 208.543 103.751 208.534 104.249 208.543C104.767 208.543 105.412 208.563 106.019 208.211C106.625 207.859 106.625 207.508 106.625 207.214C106.625 206.97 106.625 206.794 106.957 206.609C107.309 206.403 107.582 206.384 107.973 206.355C108.413 206.325 108.951 206.276 109.537 205.944C109.899 205.739 110.163 205.71 110.544 205.68C110.964 205.641 111.492 205.592 112.069 205.26C112.597 204.957 112.763 204.732 112.919 204.537C113.056 204.361 113.164 204.214 113.565 203.98C114.18 203.628 114.151 203.247 114.131 202.944C114.112 202.651 114.112 202.495 114.415 202.319C114.767 202.114 115.04 202.094 115.431 202.065C115.871 202.035 116.409 201.986 116.986 201.654C117.533 201.342 117.67 201.087 117.787 200.873C117.895 200.677 117.983 200.53 118.364 200.306C118.657 200.14 118.95 200.149 119.478 200.179C120.035 200.208 120.729 200.247 121.355 199.886C121.951 199.544 121.971 199.192 121.98 198.908C121.99 198.664 122 198.498 122.332 198.302C122.801 198.029 123.026 197.892 123.261 197.745C123.486 197.609 123.701 197.472 124.16 197.208C124.708 196.895 124.844 196.651 124.971 196.426C125.079 196.241 125.167 196.084 125.558 195.86C126.105 195.547 126.242 195.293 126.369 195.078C126.477 194.882 126.565 194.736 126.946 194.511C127.288 194.316 127.572 194.306 127.982 194.286C128.451 194.267 129.028 194.247 129.614 193.905C130.132 193.602 130.318 193.397 130.484 193.211C130.631 193.045 130.768 192.899 131.178 192.654C131.648 192.381 131.872 192.244 132.107 192.107C132.332 191.97 132.557 191.833 133.026 191.57C133.329 191.394 133.602 191.404 134.12 191.423C134.658 191.443 135.333 191.472 135.948 191.11C136.388 190.856 136.633 190.749 136.896 190.641C137.17 190.524 137.454 190.397 137.942 190.114C138.568 189.752 138.49 189.342 138.421 189.019C138.363 188.716 138.343 188.54 138.627 188.374C139.135 188.081 139.33 187.886 139.516 187.719C139.682 187.563 139.839 187.417 140.259 187.172C140.699 186.918 140.943 186.811 141.207 186.703C141.481 186.586 141.764 186.459 142.253 186.176C142.644 185.951 142.898 185.902 143.23 185.834C143.602 185.755 144.022 185.677 144.56 185.364C144.961 185.14 145.224 185.071 145.527 185.003C145.879 184.925 146.28 184.827 146.818 184.524C147.414 184.182 147.433 183.84 147.453 183.557C147.473 183.322 147.482 183.146 147.815 182.951C148.284 182.677 148.509 182.54 148.743 182.404C148.968 182.267 149.193 182.13 149.652 181.866C149.955 181.69 150.229 181.69 150.747 181.71C151.285 181.729 151.949 181.749 152.565 181.397C152.966 181.163 153.23 181.094 153.533 181.016C153.865 180.928 154.246 180.83 154.774 180.527C155.429 180.146 155.224 179.667 155.058 179.286C154.892 178.905 154.843 178.71 155.087 178.563C155.331 178.426 155.683 178.466 156.387 178.573C157.081 178.69 157.951 178.827 158.616 178.446C159.231 178.094 159.202 177.713 159.173 177.41C159.153 177.117 159.153 176.961 159.456 176.785C159.857 176.55 160.121 176.482 160.424 176.404C160.756 176.316 161.147 176.218 161.665 175.915C162.252 175.573 162.291 175.241 162.33 174.977C162.359 174.742 162.379 174.576 162.721 174.381C163.053 174.185 163.356 174.185 163.767 174.176C164.246 174.176 164.852 174.156 165.448 173.814C166.054 173.462 166.044 173.091 166.035 172.798C166.035 172.534 166.015 172.368 166.338 172.182C166.601 172.026 166.983 172.065 167.569 172.153C168.224 172.241 169.035 172.348 169.68 171.977C170.316 171.606 170.199 171.176 170.101 170.834C170.013 170.511 169.974 170.326 170.257 170.159C170.609 169.954 170.883 169.935 171.264 169.905C171.694 169.866 172.232 169.827 172.808 169.495C173.317 169.202 173.512 169.006 173.688 168.84C173.854 168.684 174.011 168.537 174.431 168.293C174.773 168.098 175.056 168.078 175.457 168.058C175.917 168.039 176.484 168.01 177.07 167.668C177.627 167.345 177.754 167.071 177.852 166.856C177.94 166.661 178.018 166.505 178.39 166.29C178.957 165.967 179.054 165.674 179.142 165.44C179.211 165.234 179.269 165.078 179.631 164.863L178.957 164.472C178.39 164.795 178.292 165.088 178.204 165.322C178.135 165.527 178.077 165.684 177.715 165.899C177.158 166.221 177.031 166.495 176.933 166.71C176.845 166.905 176.767 167.062 176.396 167.277C176.053 167.472 175.77 167.492 175.369 167.511C174.91 167.531 174.343 167.56 173.766 167.902C173.258 168.195 173.062 168.391 172.877 168.557C172.711 168.713 172.554 168.86 172.134 169.104C171.782 169.309 171.508 169.329 171.127 169.358C170.697 169.397 170.159 169.436 169.583 169.769C168.947 170.14 169.065 170.57 169.162 170.912C169.25 171.234 169.289 171.42 169.006 171.586C168.742 171.742 168.361 171.703 167.774 171.615C167.12 171.527 166.308 171.42 165.663 171.791C165.057 172.143 165.067 172.514 165.077 172.808C165.077 173.071 165.096 173.238 164.774 173.423C164.441 173.619 164.148 173.619 163.728 173.628C163.249 173.628 162.643 173.648 162.047 173.99C161.46 174.332 161.421 174.664 161.382 174.928C161.353 175.163 161.333 175.329 160.991 175.524C160.59 175.759 160.326 175.827 160.023 175.905C159.691 175.993 159.3 176.091 158.782 176.394C158.166 176.746 158.195 177.127 158.225 177.43C158.244 177.723 158.244 177.879 157.941 178.055C157.697 178.192 157.345 178.153 156.641 178.045C155.947 177.928 155.077 177.791 154.413 178.172C153.758 178.553 153.963 179.032 154.129 179.413C154.295 179.794 154.344 179.99 154.1 180.137C153.699 180.371 153.435 180.439 153.132 180.518C152.8 180.606 152.419 180.703 151.891 181.006C151.588 181.182 151.314 181.182 150.796 181.163C150.258 181.143 149.594 181.123 148.978 181.475C148.509 181.749 148.284 181.886 148.049 182.022C147.824 182.159 147.6 182.296 147.14 182.56C146.544 182.902 146.515 183.244 146.495 183.527C146.476 183.762 146.466 183.938 146.133 184.123C145.733 184.348 145.469 184.417 145.166 184.485C144.814 184.563 144.413 184.661 143.876 184.964C143.485 185.189 143.23 185.237 142.898 185.306C142.527 185.384 142.106 185.462 141.569 185.775C141.129 186.029 140.885 186.136 140.621 186.244C140.347 186.361 140.063 186.488 139.575 186.772C139.066 187.065 138.871 187.26 138.685 187.426C138.519 187.583 138.363 187.729 137.942 187.974C137.317 188.335 137.395 188.746 137.463 189.068C137.522 189.371 137.542 189.547 137.258 189.713C136.818 189.967 136.574 190.075 136.31 190.182C136.036 190.299 135.753 190.426 135.264 190.71C134.961 190.886 134.687 190.876 134.169 190.856C133.632 190.837 132.957 190.807 132.342 191.169C131.872 191.443 131.648 191.579 131.413 191.716C131.188 191.853 130.963 191.99 130.494 192.254C129.976 192.557 129.79 192.762 129.624 192.947C129.478 193.114 129.341 193.26 128.93 193.504C128.588 193.7 128.295 193.71 127.894 193.729C127.425 193.749 126.848 193.768 126.262 194.11C125.714 194.423 125.577 194.677 125.45 194.892C125.343 195.088 125.255 195.234 124.874 195.459C124.326 195.772 124.19 196.016 124.062 196.241C123.955 196.426 123.867 196.583 123.476 196.807C123.007 197.081 122.782 197.218 122.547 197.364C122.323 197.501 122.108 197.638 121.648 197.902C121.052 198.244 121.032 198.596 121.023 198.879C121.013 199.123 121.003 199.289 120.671 199.485C120.377 199.651 120.084 199.641 119.556 199.612C118.999 199.583 118.305 199.544 117.68 199.905C117.132 200.218 116.995 200.472 116.868 200.687C116.761 200.882 116.683 201.029 116.292 201.254C115.94 201.459 115.666 201.478 115.275 201.508C114.835 201.537 114.298 201.586 113.721 201.918C113.105 202.27 113.134 202.651 113.154 202.954C113.174 203.247 113.174 203.403 112.871 203.579C112.343 203.882 112.177 204.107 112.02 204.302C111.883 204.478 111.776 204.625 111.375 204.859C111.013 205.065 110.749 205.094 110.368 205.123C109.948 205.162 109.42 205.211 108.853 205.543C108.501 205.749 108.228 205.768 107.837 205.798C107.397 205.827 106.859 205.876 106.273 206.208C105.667 206.56 105.667 206.912 105.667 207.205C105.667 207.449 105.667 207.625 105.334 207.811C105.031 207.986 104.758 207.996 104.259 207.986C103.741 207.986 103.096 207.967 102.49 208.319C101.933 208.641 101.815 208.895 101.698 209.13C101.6 209.325 101.532 209.482 101.151 209.697C100.633 209.999 100.447 210.205 100.281 210.381C100.124 210.547 99.9974 210.693 99.5771 210.938C99.2252 211.143 98.9515 211.162 98.5605 211.192C98.1304 211.231 97.583 211.27 97.0063 211.602C96.4296 211.934 96.3417 212.237 96.2732 212.482C96.2146 212.696 96.1657 212.853 95.8041 213.058C95.4424 213.263 95.1785 213.293 94.7973 213.322C94.377 213.361 93.8492 213.41 93.2725 213.742C92.7055 214.074 92.6078 214.368 92.5394 214.612C92.4709 214.827 92.4221 214.983 92.0604 215.188C91.4935 215.511 91.3859 215.804 91.298 216.039C91.2198 216.244 91.1612 216.4 90.7995 216.615C90.5258 216.771 90.1837 216.742 89.5874 216.674C88.9521 216.595 88.1603 216.508 87.5152 216.879C86.9483 217.201 86.8408 217.495 86.7626 217.739C86.6942 217.944 86.6355 218.1 86.2738 218.315C85.7265 218.628 85.5896 218.872 85.4625 219.087C85.355 219.273 85.2671 219.429 84.8761 219.654C84.4656 219.889 84.2114 219.967 83.9084 220.055C83.5858 220.152 83.234 220.26 82.7061 220.553C82.276 220.797 82.0219 220.895 81.7482 220.993L81.7677 220.983ZM122.068 206.276C121.746 206.374 121.384 206.482 120.866 206.785L121.541 207.175C121.961 206.931 122.215 206.853 122.518 206.765C122.841 206.667 123.202 206.56 123.72 206.257C124.141 206.013 124.395 205.934 124.688 205.837C125.001 205.739 125.353 205.622 125.871 205.328C126.438 205.006 126.555 204.723 126.653 204.488C126.741 204.283 126.809 204.127 127.181 203.912C127.65 203.638 127.884 203.501 128.119 203.364C128.353 203.228 128.578 203.091 129.047 202.817C129.409 202.612 129.683 202.583 130.074 202.553C130.504 202.514 131.051 202.475 131.628 202.133C132.058 201.889 132.312 201.791 132.596 201.703C132.889 201.596 133.231 201.478 133.739 201.185C134.355 200.824 134.326 200.443 134.306 200.14C134.287 199.856 134.287 199.68 134.59 199.504C134.893 199.329 135.196 199.338 135.714 199.358C136.271 199.387 136.955 199.416 137.581 199.055C138.157 198.723 138.245 198.41 138.314 198.166C138.372 197.941 138.421 197.785 138.783 197.579C139.213 197.335 139.477 197.237 139.751 197.149C140.054 197.042 140.386 196.925 140.894 196.631C141.451 196.309 141.579 196.045 141.686 195.811C141.784 195.615 141.852 195.459 142.233 195.234C142.605 195.019 142.888 194.98 143.23 194.931C143.621 194.873 144.12 194.814 144.687 194.482C145.264 194.149 145.361 193.846 145.439 193.612C145.508 193.397 145.557 193.241 145.928 193.026C146.241 192.85 146.524 192.84 147.013 192.85C147.531 192.85 148.186 192.869 148.792 192.518C149.388 192.175 149.418 191.824 149.437 191.55C149.457 191.316 149.467 191.14 149.809 190.944C150.2 190.719 150.464 190.671 150.796 190.602C151.177 190.524 151.607 190.446 152.155 190.133C152.653 189.85 152.858 189.674 153.064 189.518C153.249 189.361 153.435 189.224 153.875 188.97C154.256 188.746 154.53 188.706 154.872 188.648C155.273 188.579 155.713 188.511 156.27 188.189C156.798 187.886 156.973 187.661 157.13 187.465C157.267 187.29 157.384 187.133 157.795 186.899C158.332 186.586 158.489 186.351 158.635 186.146C158.762 185.97 158.86 185.814 159.261 185.579C159.701 185.325 159.955 185.228 160.219 185.11C160.502 184.993 160.805 184.876 161.304 184.583C161.704 184.348 161.978 184.29 162.281 184.211C162.633 184.123 163.034 184.035 163.562 183.723C164.168 183.371 164.168 183.009 164.177 182.716C164.177 182.472 164.177 182.286 164.51 182.101C164.94 181.856 165.204 181.759 165.468 181.661C165.771 181.553 166.093 181.436 166.592 181.143C166.963 180.928 167.237 180.899 167.598 180.85C167.999 180.801 168.508 180.742 169.074 180.41C169.583 180.117 169.778 179.941 169.974 179.765C170.15 179.609 170.316 179.462 170.756 179.208C171.156 178.974 171.43 178.905 171.733 178.827C172.075 178.739 172.466 178.641 173.004 178.338C173.532 178.036 173.708 177.811 173.864 177.615C174.001 177.439 174.118 177.283 174.529 177.049C174.998 176.785 175.232 176.648 175.467 176.521C175.711 176.384 175.956 176.257 176.425 175.983C176.914 175.7 177.129 175.534 177.344 175.378C177.549 175.231 177.735 175.084 178.184 174.83C178.585 174.596 178.859 174.527 179.162 174.459C179.504 174.371 179.905 174.273 180.433 173.97C180.951 173.667 181.146 173.462 181.312 173.286C181.469 173.12 181.605 172.974 182.026 172.729C182.427 172.505 182.69 172.436 183.003 172.368C183.365 172.29 183.775 172.202 184.313 171.889C184.792 171.615 185.017 171.469 185.242 171.322C185.457 171.185 185.681 171.039 186.141 170.775C186.669 170.472 186.845 170.257 187.011 170.071C187.157 169.896 187.285 169.749 187.705 169.514L187.03 169.124C186.503 169.426 186.327 169.641 186.16 169.827C186.014 170.003 185.887 170.15 185.466 170.384C184.987 170.658 184.763 170.804 184.538 170.951C184.323 171.088 184.098 171.234 183.639 171.498C183.238 171.723 182.974 171.791 182.661 171.86C182.299 171.938 181.889 172.026 181.351 172.339C180.833 172.641 180.638 172.847 180.472 173.023C180.315 173.189 180.178 173.335 179.758 173.58C179.357 173.814 179.084 173.882 178.781 173.961C178.438 174.049 178.038 174.146 177.51 174.449C177.021 174.733 176.806 174.899 176.591 175.055C176.386 175.202 176.2 175.348 175.751 175.602C175.281 175.866 175.047 176.003 174.812 176.13C174.568 176.267 174.323 176.394 173.854 176.667C173.326 176.97 173.15 177.195 172.994 177.391C172.857 177.566 172.74 177.723 172.329 177.957C171.929 178.192 171.655 178.26 171.352 178.338C171.01 178.426 170.619 178.524 170.081 178.827C169.573 179.12 169.377 179.296 169.182 179.472C169.006 179.628 168.84 179.775 168.4 180.029C168.029 180.244 167.745 180.273 167.393 180.322C166.983 180.371 166.484 180.43 165.917 180.762C165.487 181.006 165.223 181.104 164.959 181.202C164.656 181.309 164.334 181.426 163.835 181.72C163.229 182.071 163.229 182.433 163.219 182.726C163.219 182.97 163.219 183.156 162.887 183.342C162.486 183.576 162.213 183.635 161.91 183.713C161.558 183.801 161.157 183.889 160.629 184.202C160.189 184.456 159.935 184.553 159.671 184.661C159.378 184.778 159.085 184.895 158.586 185.189C158.049 185.501 157.892 185.736 157.746 185.941C157.619 186.117 157.521 186.273 157.12 186.508C156.592 186.811 156.416 187.035 156.26 187.231C156.123 187.407 156.006 187.563 155.595 187.798C155.214 188.022 154.94 188.062 154.598 188.12C154.207 188.189 153.758 188.257 153.201 188.579C152.702 188.863 152.497 189.039 152.291 189.195C152.106 189.351 151.92 189.488 151.48 189.742C151.089 189.967 150.825 190.016 150.493 190.084C150.112 190.153 149.682 190.241 149.134 190.553C148.538 190.895 148.509 191.247 148.489 191.521C148.47 191.755 148.46 191.931 148.118 192.127C147.805 192.303 147.521 192.312 147.033 192.303C146.515 192.303 145.86 192.283 145.254 192.635C144.677 192.967 144.579 193.27 144.501 193.504C144.433 193.719 144.384 193.876 144.012 194.091C143.641 194.306 143.357 194.345 143.015 194.394C142.624 194.452 142.126 194.511 141.559 194.843C141.002 195.166 140.875 195.43 140.767 195.664C140.669 195.86 140.601 196.016 140.22 196.241C139.79 196.485 139.526 196.583 139.252 196.671C138.949 196.778 138.617 196.895 138.109 197.188C137.532 197.521 137.444 197.833 137.375 198.078C137.317 198.302 137.268 198.459 136.906 198.664C136.603 198.84 136.3 198.83 135.782 198.811C135.225 198.781 134.541 198.752 133.915 199.114C133.299 199.475 133.329 199.856 133.348 200.159C133.368 200.443 133.368 200.618 133.065 200.794C132.635 201.039 132.381 201.136 132.097 201.224C131.804 201.332 131.462 201.449 130.954 201.742C130.592 201.947 130.318 201.977 129.927 202.006C129.497 202.045 128.95 202.084 128.373 202.426C127.904 202.7 127.669 202.837 127.435 202.973C127.2 203.11 126.975 203.247 126.506 203.521C125.939 203.843 125.822 204.127 125.724 204.351C125.636 204.557 125.568 204.713 125.196 204.928C124.776 205.172 124.522 205.25 124.229 205.348C123.916 205.446 123.564 205.563 123.056 205.856C122.635 206.1 122.381 206.179 122.078 206.267L122.068 206.276Z" fill="#CED3F8" stroke="#222222" stroke-width="2" stroke-linejoin="round"/>
<path d="M250.392 115.892C244.781 112.654 237.421 111.031 230.069 111.031C222.716 111.031 215.357 112.654 209.746 115.892C204.135 119.13 201.326 123.376 201.326 127.622C201.326 131.867 204.135 136.113 209.746 139.351C215.357 142.589 222.716 144.212 230.069 144.212C237.429 144.212 244.781 142.589 250.392 139.351C256.003 136.113 258.812 131.867 258.812 127.622C258.812 123.376 256.003 119.13 250.392 115.892Z" fill="#E4282B" stroke="#222222" stroke-width="2" stroke-linejoin="round"/>
<path d="M198.443 111.177C198.443 115.808 201.504 120.439 207.626 123.966C213.748 127.501 221.768 129.264 229.787 129.264C237.807 129.264 245.826 127.501 251.948 123.966C258.07 120.432 261.131 115.801 261.131 111.177C261.131 106.546 258.07 101.915 251.948 98.3878C245.826 94.8533 237.807 93.0898 229.787 93.0898C221.768 93.0898 213.748 94.8533 207.626 98.3878C201.504 101.922 198.443 106.553 198.443 111.177ZM201.771 111.177C201.771 107.035 204.506 102.9 209.976 99.7438C215.445 96.5872 222.613 95.009 229.787 95.009C236.954 95.009 244.129 96.5872 249.599 99.7438C255.069 102.9 257.804 107.042 257.804 111.177C257.804 115.319 255.069 119.454 249.599 122.61C244.129 125.767 236.962 127.345 229.787 127.345C222.62 127.345 215.445 125.767 209.976 122.61C204.506 119.454 201.771 115.312 201.771 111.177Z" fill="white" stroke="#222222" stroke-width="2" stroke-linejoin="round"/>
<path d="M198.65 109.131C198.517 109.813 198.443 110.495 198.443 111.176C198.443 115.807 201.504 120.438 207.626 123.965C213.748 127.5 221.768 129.263 229.787 129.263C237.807 129.263 245.826 127.5 251.948 123.965C258.07 120.431 261.131 115.8 261.131 111.176C261.131 109.183 260.561 107.197 259.434 105.293C268.899 120.253 259.175 137.881 251.756 145.52C250.607 146.839 249.08 148.084 247.168 149.188C242.365 151.959 236.08 153.345 229.787 153.345C223.495 153.345 217.209 151.959 212.407 149.188C209.353 147.425 208.1 145.394 206.159 143.068C199.873 135.332 193.425 121.698 198.65 109.131Z" stroke="#222222" stroke-width="2" stroke-linejoin="round"/>
<path d="M242.995 100.02V111.179C242.995 113.127 241.705 115.083 239.126 116.573C236.547 118.062 233.167 118.803 229.78 118.803C226.392 118.803 223.02 118.062 220.433 116.573C217.854 115.083 216.564 113.135 216.564 111.179V100.02H242.987H242.995Z" fill="#F4D2D2" stroke="#222222" stroke-width="2" stroke-linejoin="round"/>
<path d="M239.126 94.6249C236.547 93.1355 233.167 92.3945 229.78 92.3945C226.4 92.3945 223.02 93.1355 220.433 94.6249C217.854 96.1142 216.564 98.063 216.564 100.019C216.564 101.968 217.854 103.924 220.433 105.413C223.013 106.903 226.392 107.644 229.78 107.644C233.159 107.644 236.539 106.895 239.126 105.413C241.705 103.924 242.995 101.975 242.995 100.019C242.995 98.063 241.705 96.1142 239.126 94.6249Z" fill="#F6F6FB" stroke="#222222" stroke-width="2" stroke-linejoin="round"/>
<path d="M237.658 95.4758C235.487 94.2236 232.633 93.5938 229.787 93.5938C226.941 93.5938 224.088 94.2236 221.916 95.4758C219.744 96.7281 218.655 98.373 218.655 100.018C218.655 101.663 219.744 103.308 221.916 104.56C224.088 105.812 226.941 106.442 229.787 106.442C232.633 106.442 235.487 105.812 237.658 104.56C239.83 103.308 240.92 101.663 240.92 100.018C240.92 98.373 239.83 96.7281 237.658 95.4758Z" fill="#F4D2D2" stroke="#222222" stroke-width="2" stroke-linejoin="round"/>
<g style="mix-blend-mode:multiply" opacity="0.4">
<path d="M209.581 139.534C215.194 142.836 222.557 144.491 229.913 144.491C237.277 144.491 244.633 142.836 250.246 139.534C254.08 137.281 259.872 132.91 261.088 130.023C258.975 134.989 255.817 141.438 252.911 144.491L250.73 146.924C249.729 148.103 247.502 148.638 245.879 149.59C241.6 152.107 235.86 153.49 229.721 153.49C223.573 153.49 217.745 149.902 213.474 147.385C210.945 145.897 207.905 141.733 207.905 141.733C206.429 139.881 204.145 136.458 202.21 132.105C203.493 134.825 205.94 137.395 209.581 139.534Z" fill="#E4282B"/>
<path d="M209.581 139.534C215.194 142.836 222.557 144.491 229.913 144.491C237.277 144.491 244.633 142.836 250.246 139.534C254.08 137.281 259.872 132.91 261.088 130.023C258.975 134.989 255.817 141.438 252.911 144.491L250.73 146.924C249.729 148.103 247.502 148.638 245.879 149.59C241.6 152.107 235.86 153.49 229.721 153.49C223.573 153.49 217.745 149.902 213.474 147.385C210.945 145.897 207.905 141.733 207.905 141.733C206.429 139.881 204.145 136.458 202.21 132.105C203.493 134.825 205.94 137.395 209.581 139.534Z" stroke="#222222" stroke-width="2" stroke-linejoin="round"/>
</g>
<path opacity="0.4" d="M230.069 144.217C222.709 144.217 215.357 142.594 209.746 139.356C204.135 136.118 201.326 131.872 201.326 127.626C201.326 125.418 202.097 123.203 203.616 121.135C204.765 122.136 206.099 123.084 207.626 123.966C213.748 127.5 221.768 129.264 229.787 129.264C237.807 129.264 245.826 127.5 251.948 123.966C253.631 122.995 255.076 121.936 256.292 120.824C257.967 122.98 258.812 125.3 258.812 127.619C258.812 131.865 256.003 136.11 250.392 139.348C244.781 142.587 237.421 144.209 230.069 144.209V144.217Z" fill="#E4282B" stroke="#222222" stroke-width="2" stroke-linejoin="round"/>
<path opacity="0.1" d="M220.441 116.57C218.61 115.518 217.447 114.229 216.913 112.873C221.027 111.65 225.548 111.035 230.069 111.035C234.405 111.035 238.741 111.606 242.721 112.725C242.217 114.132 241.023 115.474 239.134 116.57C236.554 118.06 233.174 118.801 229.787 118.801C226.4 118.801 223.028 118.06 220.441 116.57Z" fill="#F4D2D2" stroke="#222222" stroke-width="2" stroke-linejoin="round"/>
<path d="M229.787 153.346C223.495 153.346 217.209 151.961 212.407 149.19C209.353 147.426 208.1 145.396 206.158 143.069C199.896 135.363 193.477 121.796 198.599 109.273C198.606 109.273 198.621 109.281 198.628 109.288C198.517 109.918 198.443 110.548 198.443 111.178C198.443 115.809 201.504 120.44 207.626 123.967C210.472 125.612 213.726 126.864 217.202 127.738C216.92 136.675 222.346 147.997 230.891 153.324C230.521 153.332 230.158 153.339 229.787 153.339V153.346Z" fill="white" stroke="#222222" stroke-width="2" stroke-linejoin="round"/>
<path d="M227.942 95.5953C216.023 94.4023 206.181 94.3134 204.483 87.1408C202.786 79.9608 182.767 2.64789 188.103 1.58089C193.44 0.506483 222.916 46.7579 234.093 74.8036C235.783 79.0346 231.988 90.816 229.972 94.8246C228.772 95.7435 227.942 95.6027 227.942 95.6027V95.5953Z" fill="white" stroke="#222222" stroke-width="2" stroke-linejoin="round"/>
<g style="mix-blend-mode:multiply">
<path d="M203.505 32.0352C205.929 37.1627 208.767 37.748 210.82 41.4825C212.866 45.2096 210.012 46.3063 212.74 49.6703C216.06 52.7897 219.136 51.8561 219.855 53.2862C220.9 55.3757 217.365 59.5326 219.455 63.0744C221.545 66.6163 223.709 60.7404 225.155 63.0744C226.6 65.4085 222.583 73.6333 224.028 76.2637C225.473 78.8941 230.691 71.5215 231.418 74.3668C232.137 77.2121 227.712 87.8969 227.519 88.5712C227.326 89.2529 225.533 89.4011 225.533 89.4011C220.396 88.5564 205.832 82.2582 205.617 80.0575C205.402 77.8568 217.076 80.9244 216.379 77.679C215.682 74.4335 207.114 71.8623 206.685 68.7577C206.255 65.653 212.518 68.4168 211.339 64.875C210.168 61.3405 205.395 59.8067 204.995 58.3544C204.698 57.28 208.901 56.4131 208.752 50.4705C208.56 48.5292 204.832 46.3803 203.876 43.7351C202.912 41.0898 204.735 39.2374 202.593 32.5909C202.445 32.2426 203.505 32.0426 203.505 32.0426V32.0352Z" fill="#F4D2D2"/>
<path d="M203.505 32.0352C205.929 37.1627 208.767 37.748 210.82 41.4825C212.866 45.2096 210.012 46.3063 212.74 49.6703C216.06 52.7897 219.136 51.8561 219.855 53.2862C220.9 55.3757 217.365 59.5326 219.455 63.0744C221.545 66.6163 223.709 60.7404 225.155 63.0744C226.6 65.4085 222.583 73.6333 224.028 76.2637C225.473 78.8941 230.691 71.5215 231.418 74.3668C232.137 77.2121 227.712 87.8969 227.519 88.5712C227.326 89.2529 225.533 89.4011 225.533 89.4011C220.396 88.5564 205.832 82.2582 205.617 80.0575C205.402 77.8568 217.076 80.9244 216.379 77.679C215.682 74.4335 207.114 71.8623 206.685 68.7577C206.255 65.653 212.518 68.4168 211.339 64.875C210.168 61.3405 205.395 59.8067 204.995 58.3544C204.698 57.28 208.901 56.4131 208.752 50.4705C208.56 48.5292 204.832 46.3803 203.876 43.7351C202.912 41.0898 204.735 39.2374 202.593 32.5909C202.445 32.2426 203.505 32.0426 203.505 32.0426V32.0352Z" stroke="#222222" stroke-width="2" stroke-linejoin="round"/>
</g>
<path d="M234.279 105.894C233.567 106.071 232.833 106.212 232.077 106.301C220.9 77.2402 200.703 26.054 195.678 17.7773C204.721 30.6925 223.702 78.4851 234.279 105.894Z" fill="#E4282B" stroke="#222222" stroke-linejoin="round"/>
<path opacity="0.2" d="M234.738 107.089C238.978 118.085 241.757 125.517 241.809 125.54C241.839 125.614 241.868 125.688 241.891 125.762C241.142 125.969 240.379 126.155 239.608 126.318C239.608 126.303 239.593 126.288 239.593 126.273C239.274 125.199 236.532 117.871 232.537 107.467C233.286 107.378 234.027 107.252 234.746 107.082L234.738 107.089Z" fill="#A3A9D0" stroke="#222222" stroke-width="2" stroke-linejoin="round"/>
</svg>
